<?xml version="1.0" encoding="utf-8"?>
<!DOCTYPE svg PUBLIC "-//W3C//DTD SVG 1.1//EN" "http://www.w3.org/Graphics/SVG/1.1/DTD/svg11.dtd">
<svg version="1.1" id="Layer_1" xmlns="http://www.w3.org/2000/svg" xmlns:xlink="http://www.w3.org/1999/xlink" x="0px" y="0px"
width="1155px" height="1155px" viewBox="0 0 1155 1155" enable-background="new 0 0 1155 1155" xml:space="preserve">
<rect x="0" y="0" width="1155" height="1155" fill="rgb(243,237,224)" /><g transform="translate(70,70)"><g transform="translate(315,0) scale(0.07,0.07)"><g transform="" style="fill: rgb(165, 25, 25);">
<path d="M250,0c138.077,0,250,111.93,250,250c0,138.077-111.923,250-250,250C111.93,500,0,388.077,0,250C0,111.93,111.93,0,250,0z"
	/>
</g></g><g transform="translate(350,0) scale(0.07,0.07)"><g transform="" style="fill: rgb(165, 25, 25);">
<path d="M250,0c138.077,0,250,111.93,250,250c0,138.077-111.923,250-250,250C111.93,500,0,388.077,0,250C0,111.93,111.93,0,250,0z"
	/>
</g></g><g transform="translate(385,0) scale(0.07,0.07)"><g transform="" style="fill: rgb(165, 25, 25);">
<path d="M250,0c138.077,0,250,111.93,250,250c0,138.077-111.923,250-250,250C111.93,500,0,388.077,0,250C0,111.93,111.93,0,250,0z"
	/>
</g></g><g transform="translate(490,0) scale(0.07,0.07)"><g transform="" style="fill: rgb(165, 25, 25);">
<path d="M250,0c138.077,0,250,111.93,250,250c0,138.077-111.923,250-250,250C111.93,500,0,388.077,0,250C0,111.93,111.93,0,250,0z"
	/>
</g></g><g transform="translate(595,0) scale(0.07,0.07)"><g transform="" style="fill: rgb(165, 25, 25);">
<path d="M250,0c138.077,0,250,111.93,250,250c0,138.077-111.923,250-250,250C111.93,500,0,388.077,0,250C0,111.93,111.93,0,250,0z"
	/>
</g></g><g transform="translate(630,0) scale(0.07,0.07)"><g transform="" style="fill: rgb(165, 25, 25);">
<path d="M250,0c138.077,0,250,111.93,250,250c0,138.077-111.923,250-250,250C111.93,500,0,388.077,0,250C0,111.93,111.93,0,250,0z"
	/>
</g></g><g transform="translate(665,0) scale(0.07,0.07)"><g transform="" style="fill: rgb(165, 25, 25);">
<path d="M250,0c138.077,0,250,111.93,250,250c0,138.077-111.923,250-250,250C111.93,500,0,388.077,0,250C0,111.93,111.93,0,250,0z"
	/>
</g></g><g transform="translate(700,0) scale(0.07,0.07)"><g transform="" style="fill: rgb(165, 25, 25);">
<path d="M250,0c138.077,0,250,111.93,250,250c0,138.077-111.923,250-250,250C111.93,500,0,388.077,0,250C0,111.93,111.93,0,250,0z"
	/>
</g></g><g transform="translate(560,35) scale(0.07,0.07)"><g transform="" style="fill: rgb(165, 25, 25);">
<path d="M250,0c138.077,0,250,111.93,250,250c0,138.077-111.923,250-250,250C111.93,500,0,388.077,0,250C0,111.93,111.93,0,250,0z"
	/>
</g></g><g transform="translate(630,35) scale(0.07,0.07)"><g transform="" style="fill: rgb(165, 25, 25);">
<path d="M250,0c138.077,0,250,111.93,250,250c0,138.077-111.923,250-250,250C111.93,500,0,388.077,0,250C0,111.93,111.93,0,250,0z"
	/>
</g></g><g transform="translate(350,70) scale(0.07,0.07)"><g transform="" style="fill: rgb(165, 25, 25);">
<path d="M250,0c138.077,0,250,111.93,250,250c0,138.077-111.923,250-250,250C111.93,500,0,388.077,0,250C0,111.93,111.93,0,250,0z"
	/>
</g></g><g transform="translate(385,70) scale(0.07,0.07)"><g transform="" style="fill: rgb(165, 25, 25);">
<path d="M250,0c138.077,0,250,111.93,250,250c0,138.077-111.923,250-250,250C111.93,500,0,388.077,0,250C0,111.93,111.93,0,250,0z"
	/>
</g></g><g transform="translate(490,70) scale(0.07,0.07)"><g transform="" style="fill: rgb(165, 25, 25);">
<path d="M250,0c138.077,0,250,111.93,250,250c0,138.077-111.923,250-250,250C111.93,500,0,388.077,0,250C0,111.93,111.93,0,250,0z"
	/>
</g></g><g transform="translate(525,70) scale(0.07,0.07)"><g transform="" style="fill: rgb(165, 25, 25);">
<path d="M250,0c138.077,0,250,111.93,250,250c0,138.077-111.923,250-250,250C111.93,500,0,388.077,0,250C0,111.93,111.93,0,250,0z"
	/>
</g></g><g transform="translate(595,70) scale(0.07,0.07)"><g transform="" style="fill: rgb(165, 25, 25);">
<path d="M250,0c138.077,0,250,111.93,250,250c0,138.077-111.923,250-250,250C111.93,500,0,388.077,0,250C0,111.93,111.93,0,250,0z"
	/>
</g></g><g transform="translate(630,70) scale(0.07,0.07)"><g transform="" style="fill: rgb(165, 25, 25);">
<path d="M250,0c138.077,0,250,111.93,250,250c0,138.077-111.923,250-250,250C111.93,500,0,388.077,0,250C0,111.93,111.93,0,250,0z"
	/>
</g></g><g transform="translate(665,70) scale(0.07,0.07)"><g transform="" style="fill: rgb(165, 25, 25);">
<path d="M250,0c138.077,0,250,111.93,250,250c0,138.077-111.923,250-250,250C111.93,500,0,388.077,0,250C0,111.93,111.93,0,250,0z"
	/>
</g></g><g transform="translate(385,105) scale(0.07,0.07)"><g transform="" style="fill: rgb(165, 25, 25);">
<path d="M250,0c138.077,0,250,111.93,250,250c0,138.077-111.923,250-250,250C111.93,500,0,388.077,0,250C0,111.93,111.93,0,250,0z"
	/>
</g></g><g transform="translate(455,105) scale(0.07,0.07)"><g transform="" style="fill: rgb(165, 25, 25);">
<path d="M250,0c138.077,0,250,111.93,250,250c0,138.077-111.923,250-250,250C111.93,500,0,388.077,0,250C0,111.93,111.93,0,250,0z"
	/>
</g></g><g transform="translate(560,105) scale(0.07,0.07)"><g transform="" style="fill: rgb(165, 25, 25);">
<path d="M250,0c138.077,0,250,111.93,250,250c0,138.077-111.923,250-250,250C111.93,500,0,388.077,0,250C0,111.93,111.93,0,250,0z"
	/>
</g></g><g transform="translate(630,105) scale(0.07,0.07)"><g transform="" style="fill: rgb(165, 25, 25);">
<path d="M250,0c138.077,0,250,111.93,250,250c0,138.077-111.923,250-250,250C111.93,500,0,388.077,0,250C0,111.93,111.93,0,250,0z"
	/>
</g></g><g transform="translate(665,105) scale(0.07,0.07)"><g transform="" style="fill: rgb(165, 25, 25);">
<path d="M250,0c138.077,0,250,111.93,250,250c0,138.077-111.923,250-250,250C111.93,500,0,388.077,0,250C0,111.93,111.93,0,250,0z"
	/>
</g></g><g transform="translate(350,140) scale(0.07,0.07)"><g transform="" style="fill: rgb(165, 25, 25);">
<path d="M250,0c138.077,0,250,111.93,250,250c0,138.077-111.923,250-250,250C111.93,500,0,388.077,0,250C0,111.93,111.93,0,250,0z"
	/>
</g></g><g transform="translate(385,140) scale(0.07,0.07)"><g transform="" style="fill: rgb(165, 25, 25);">
<path d="M250,0c138.077,0,250,111.93,250,250c0,138.077-111.923,250-250,250C111.93,500,0,388.077,0,250C0,111.93,111.93,0,250,0z"
	/>
</g></g><g transform="translate(595,140) scale(0.07,0.07)"><g transform="" style="fill: rgb(165, 25, 25);">
<path d="M250,0c138.077,0,250,111.93,250,250c0,138.077-111.923,250-250,250C111.93,500,0,388.077,0,250C0,111.93,111.93,0,250,0z"
	/>
</g></g><g transform="translate(630,140) scale(0.07,0.07)"><g transform="" style="fill: rgb(165, 25, 25);">
<path d="M250,0c138.077,0,250,111.93,250,250c0,138.077-111.923,250-250,250C111.93,500,0,388.077,0,250C0,111.93,111.93,0,250,0z"
	/>
</g></g><g transform="translate(280,175) scale(0.07,0.07)"><g transform="" style="fill: rgb(165, 25, 25);">
<path d="M250,0c138.077,0,250,111.93,250,250c0,138.077-111.923,250-250,250C111.93,500,0,388.077,0,250C0,111.93,111.93,0,250,0z"
	/>
</g></g><g transform="translate(315,175) scale(0.07,0.07)"><g transform="" style="fill: rgb(165, 25, 25);">
<path d="M250,0c138.077,0,250,111.93,250,250c0,138.077-111.923,250-250,250C111.93,500,0,388.077,0,250C0,111.93,111.93,0,250,0z"
	/>
</g></g><g transform="translate(350,175) scale(0.07,0.07)"><g transform="" style="fill: rgb(165, 25, 25);">
<path d="M250,0c138.077,0,250,111.93,250,250c0,138.077-111.923,250-250,250C111.93,500,0,388.077,0,250C0,111.93,111.93,0,250,0z"
	/>
</g></g><g transform="translate(525,175) scale(0.07,0.07)"><g transform="" style="fill: rgb(165, 25, 25);">
<path d="M250,0c138.077,0,250,111.93,250,250c0,138.077-111.923,250-250,250C111.93,500,0,388.077,0,250C0,111.93,111.93,0,250,0z"
	/>
</g></g><g transform="translate(560,175) scale(0.07,0.07)"><g transform="" style="fill: rgb(165, 25, 25);">
<path d="M250,0c138.077,0,250,111.93,250,250c0,138.077-111.923,250-250,250C111.93,500,0,388.077,0,250C0,111.93,111.93,0,250,0z"
	/>
</g></g><g transform="translate(665,175) scale(0.07,0.07)"><g transform="" style="fill: rgb(165, 25, 25);">
<path d="M250,0c138.077,0,250,111.93,250,250c0,138.077-111.923,250-250,250C111.93,500,0,388.077,0,250C0,111.93,111.93,0,250,0z"
	/>
</g></g><g transform="translate(280,210) scale(0.07,0.07)"><g transform="" style="fill: rgb(165, 25, 25);">
<path d="M250,0c138.077,0,250,111.93,250,250c0,138.077-111.923,250-250,250C111.93,500,0,388.077,0,250C0,111.93,111.93,0,250,0z"
	/>
</g></g><g transform="translate(350,210) scale(0.07,0.07)"><g transform="" style="fill: rgb(165, 25, 25);">
<path d="M250,0c138.077,0,250,111.93,250,250c0,138.077-111.923,250-250,250C111.93,500,0,388.077,0,250C0,111.93,111.93,0,250,0z"
	/>
</g></g><g transform="translate(420,210) scale(0.07,0.07)"><g transform="" style="fill: rgb(165, 25, 25);">
<path d="M250,0c138.077,0,250,111.93,250,250c0,138.077-111.923,250-250,250C111.93,500,0,388.077,0,250C0,111.93,111.93,0,250,0z"
	/>
</g></g><g transform="translate(490,210) scale(0.07,0.07)"><g transform="" style="fill: rgb(165, 25, 25);">
<path d="M250,0c138.077,0,250,111.93,250,250c0,138.077-111.923,250-250,250C111.93,500,0,388.077,0,250C0,111.93,111.93,0,250,0z"
	/>
</g></g><g transform="translate(560,210) scale(0.07,0.07)"><g transform="" style="fill: rgb(165, 25, 25);">
<path d="M250,0c138.077,0,250,111.93,250,250c0,138.077-111.923,250-250,250C111.93,500,0,388.077,0,250C0,111.93,111.93,0,250,0z"
	/>
</g></g><g transform="translate(630,210) scale(0.07,0.07)"><g transform="" style="fill: rgb(165, 25, 25);">
<path d="M250,0c138.077,0,250,111.93,250,250c0,138.077-111.923,250-250,250C111.93,500,0,388.077,0,250C0,111.93,111.93,0,250,0z"
	/>
</g></g><g transform="translate(700,210) scale(0.07,0.07)"><g transform="" style="fill: rgb(165, 25, 25);">
<path d="M250,0c138.077,0,250,111.93,250,250c0,138.077-111.923,250-250,250C111.93,500,0,388.077,0,250C0,111.93,111.93,0,250,0z"
	/>
</g></g><g transform="translate(350,245) scale(0.07,0.07)"><g transform="" style="fill: rgb(165, 25, 25);">
<path d="M250,0c138.077,0,250,111.93,250,250c0,138.077-111.923,250-250,250C111.93,500,0,388.077,0,250C0,111.93,111.93,0,250,0z"
	/>
</g></g><g transform="translate(455,245) scale(0.07,0.07)"><g transform="" style="fill: rgb(165, 25, 25);">
<path d="M250,0c138.077,0,250,111.93,250,250c0,138.077-111.923,250-250,250C111.93,500,0,388.077,0,250C0,111.93,111.93,0,250,0z"
	/>
</g></g><g transform="translate(525,245) scale(0.07,0.07)"><g transform="" style="fill: rgb(165, 25, 25);">
<path d="M250,0c138.077,0,250,111.93,250,250c0,138.077-111.923,250-250,250C111.93,500,0,388.077,0,250C0,111.93,111.93,0,250,0z"
	/>
</g></g><g transform="translate(560,245) scale(0.07,0.07)"><g transform="" style="fill: rgb(165, 25, 25);">
<path d="M250,0c138.077,0,250,111.93,250,250c0,138.077-111.923,250-250,250C111.93,500,0,388.077,0,250C0,111.93,111.93,0,250,0z"
	/>
</g></g><g transform="translate(595,245) scale(0.07,0.07)"><g transform="" style="fill: rgb(165, 25, 25);">
<path d="M250,0c138.077,0,250,111.93,250,250c0,138.077-111.923,250-250,250C111.93,500,0,388.077,0,250C0,111.93,111.93,0,250,0z"
	/>
</g></g><g transform="translate(630,245) scale(0.07,0.07)"><g transform="" style="fill: rgb(165, 25, 25);">
<path d="M250,0c138.077,0,250,111.93,250,250c0,138.077-111.923,250-250,250C111.93,500,0,388.077,0,250C0,111.93,111.93,0,250,0z"
	/>
</g></g><g transform="translate(700,245) scale(0.07,0.07)"><g transform="" style="fill: rgb(165, 25, 25);">
<path d="M250,0c138.077,0,250,111.93,250,250c0,138.077-111.923,250-250,250C111.93,500,0,388.077,0,250C0,111.93,111.93,0,250,0z"
	/>
</g></g><g transform="translate(0,280) scale(0.07,0.07)"><g transform="" style="fill: rgb(165, 25, 25);">
<path d="M250,0c138.077,0,250,111.93,250,250c0,138.077-111.923,250-250,250C111.93,500,0,388.077,0,250C0,111.93,111.93,0,250,0z"
	/>
</g></g><g transform="translate(105,280) scale(0.07,0.07)"><g transform="" style="fill: rgb(165, 25, 25);">
<path d="M250,0c138.077,0,250,111.93,250,250c0,138.077-111.923,250-250,250C111.93,500,0,388.077,0,250C0,111.93,111.93,0,250,0z"
	/>
</g></g><g transform="translate(175,280) scale(0.07,0.07)"><g transform="" style="fill: rgb(165, 25, 25);">
<path d="M250,0c138.077,0,250,111.93,250,250c0,138.077-111.923,250-250,250C111.93,500,0,388.077,0,250C0,111.93,111.93,0,250,0z"
	/>
</g></g><g transform="translate(210,280) scale(0.07,0.07)"><g transform="" style="fill: rgb(165, 25, 25);">
<path d="M250,0c138.077,0,250,111.93,250,250c0,138.077-111.923,250-250,250C111.93,500,0,388.077,0,250C0,111.93,111.93,0,250,0z"
	/>
</g></g><g transform="translate(280,280) scale(0.07,0.07)"><g transform="" style="fill: rgb(165, 25, 25);">
<path d="M250,0c138.077,0,250,111.93,250,250c0,138.077-111.923,250-250,250C111.93,500,0,388.077,0,250C0,111.93,111.93,0,250,0z"
	/>
</g></g><g transform="translate(315,280) scale(0.07,0.07)"><g transform="" style="fill: rgb(165, 25, 25);">
<path d="M250,0c138.077,0,250,111.93,250,250c0,138.077-111.923,250-250,250C111.93,500,0,388.077,0,250C0,111.93,111.93,0,250,0z"
	/>
</g></g><g transform="translate(350,280) scale(0.07,0.07)"><g transform="" style="fill: rgb(165, 25, 25);">
<path d="M250,0c138.077,0,250,111.93,250,250c0,138.077-111.923,250-250,250C111.93,500,0,388.077,0,250C0,111.93,111.93,0,250,0z"
	/>
</g></g><g transform="translate(420,280) scale(0.07,0.07)"><g transform="" style="fill: rgb(165, 25, 25);">
<path d="M250,0c138.077,0,250,111.93,250,250c0,138.077-111.923,250-250,250C111.93,500,0,388.077,0,250C0,111.93,111.93,0,250,0z"
	/>
</g></g><g transform="translate(490,280) scale(0.07,0.07)"><g transform="" style="fill: rgb(165, 25, 25);">
<path d="M250,0c138.077,0,250,111.93,250,250c0,138.077-111.923,250-250,250C111.93,500,0,388.077,0,250C0,111.93,111.93,0,250,0z"
	/>
</g></g><g transform="translate(560,280) scale(0.07,0.07)"><g transform="" style="fill: rgb(165, 25, 25);">
<path d="M250,0c138.077,0,250,111.93,250,250c0,138.077-111.923,250-250,250C111.93,500,0,388.077,0,250C0,111.93,111.93,0,250,0z"
	/>
</g></g><g transform="translate(700,280) scale(0.07,0.07)"><g transform="" style="fill: rgb(165, 25, 25);">
<path d="M250,0c138.077,0,250,111.93,250,250c0,138.077-111.923,250-250,250C111.93,500,0,388.077,0,250C0,111.93,111.93,0,250,0z"
	/>
</g></g><g transform="translate(735,280) scale(0.07,0.07)"><g transform="" style="fill: rgb(165, 25, 25);">
<path d="M250,0c138.077,0,250,111.93,250,250c0,138.077-111.923,250-250,250C111.93,500,0,388.077,0,250C0,111.93,111.93,0,250,0z"
	/>
</g></g><g transform="translate(805,280) scale(0.07,0.07)"><g transform="" style="fill: rgb(165, 25, 25);">
<path d="M250,0c138.077,0,250,111.93,250,250c0,138.077-111.923,250-250,250C111.93,500,0,388.077,0,250C0,111.93,111.93,0,250,0z"
	/>
</g></g><g transform="translate(0,315) scale(0.07,0.07)"><g transform="" style="fill: rgb(165, 25, 25);">
<path d="M250,0c138.077,0,250,111.93,250,250c0,138.077-111.923,250-250,250C111.93,500,0,388.077,0,250C0,111.93,111.93,0,250,0z"
	/>
</g></g><g transform="translate(35,315) scale(0.07,0.07)"><g transform="" style="fill: rgb(165, 25, 25);">
<path d="M250,0c138.077,0,250,111.93,250,250c0,138.077-111.923,250-250,250C111.93,500,0,388.077,0,250C0,111.93,111.93,0,250,0z"
	/>
</g></g><g transform="translate(70,315) scale(0.07,0.07)"><g transform="" style="fill: rgb(165, 25, 25);">
<path d="M250,0c138.077,0,250,111.93,250,250c0,138.077-111.923,250-250,250C111.93,500,0,388.077,0,250C0,111.93,111.93,0,250,0z"
	/>
</g></g><g transform="translate(245,315) scale(0.07,0.07)"><g transform="" style="fill: rgb(165, 25, 25);">
<path d="M250,0c138.077,0,250,111.93,250,250c0,138.077-111.923,250-250,250C111.93,500,0,388.077,0,250C0,111.93,111.93,0,250,0z"
	/>
</g></g><g transform="translate(315,315) scale(0.07,0.07)"><g transform="" style="fill: rgb(165, 25, 25);">
<path d="M250,0c138.077,0,250,111.93,250,250c0,138.077-111.923,250-250,250C111.93,500,0,388.077,0,250C0,111.93,111.93,0,250,0z"
	/>
</g></g><g transform="translate(455,315) scale(0.07,0.07)"><g transform="" style="fill: rgb(165, 25, 25);">
<path d="M250,0c138.077,0,250,111.93,250,250c0,138.077-111.923,250-250,250C111.93,500,0,388.077,0,250C0,111.93,111.93,0,250,0z"
	/>
</g></g><g transform="translate(525,315) scale(0.07,0.07)"><g transform="" style="fill: rgb(165, 25, 25);">
<path d="M250,0c138.077,0,250,111.93,250,250c0,138.077-111.923,250-250,250C111.93,500,0,388.077,0,250C0,111.93,111.93,0,250,0z"
	/>
</g></g><g transform="translate(560,315) scale(0.07,0.07)"><g transform="" style="fill: rgb(165, 25, 25);">
<path d="M250,0c138.077,0,250,111.93,250,250c0,138.077-111.923,250-250,250C111.93,500,0,388.077,0,250C0,111.93,111.93,0,250,0z"
	/>
</g></g><g transform="translate(700,315) scale(0.07,0.07)"><g transform="" style="fill: rgb(165, 25, 25);">
<path d="M250,0c138.077,0,250,111.93,250,250c0,138.077-111.923,250-250,250C111.93,500,0,388.077,0,250C0,111.93,111.93,0,250,0z"
	/>
</g></g><g transform="translate(735,315) scale(0.07,0.07)"><g transform="" style="fill: rgb(165, 25, 25);">
<path d="M250,0c138.077,0,250,111.93,250,250c0,138.077-111.923,250-250,250C111.93,500,0,388.077,0,250C0,111.93,111.93,0,250,0z"
	/>
</g></g><g transform="translate(770,315) scale(0.07,0.07)"><g transform="" style="fill: rgb(165, 25, 25);">
<path d="M250,0c138.077,0,250,111.93,250,250c0,138.077-111.923,250-250,250C111.93,500,0,388.077,0,250C0,111.93,111.93,0,250,0z"
	/>
</g></g><g transform="translate(875,315) scale(0.07,0.07)"><g transform="" style="fill: rgb(165, 25, 25);">
<path d="M250,0c138.077,0,250,111.93,250,250c0,138.077-111.923,250-250,250C111.93,500,0,388.077,0,250C0,111.93,111.93,0,250,0z"
	/>
</g></g><g transform="translate(980,315) scale(0.07,0.07)"><g transform="" style="fill: rgb(165, 25, 25);">
<path d="M250,0c138.077,0,250,111.93,250,250c0,138.077-111.923,250-250,250C111.93,500,0,388.077,0,250C0,111.93,111.93,0,250,0z"
	/>
</g></g><g transform="translate(0,350) scale(0.07,0.07)"><g transform="" style="fill: rgb(165, 25, 25);">
<path d="M250,0c138.077,0,250,111.93,250,250c0,138.077-111.923,250-250,250C111.93,500,0,388.077,0,250C0,111.93,111.93,0,250,0z"
	/>
</g></g><g transform="translate(70,350) scale(0.07,0.07)"><g transform="" style="fill: rgb(165, 25, 25);">
<path d="M250,0c138.077,0,250,111.93,250,250c0,138.077-111.923,250-250,250C111.93,500,0,388.077,0,250C0,111.93,111.93,0,250,0z"
	/>
</g></g><g transform="translate(140,350) scale(0.07,0.07)"><g transform="" style="fill: rgb(165, 25, 25);">
<path d="M250,0c138.077,0,250,111.93,250,250c0,138.077-111.923,250-250,250C111.93,500,0,388.077,0,250C0,111.93,111.93,0,250,0z"
	/>
</g></g><g transform="translate(210,350) scale(0.07,0.07)"><g transform="" style="fill: rgb(165, 25, 25);">
<path d="M250,0c138.077,0,250,111.93,250,250c0,138.077-111.923,250-250,250C111.93,500,0,388.077,0,250C0,111.93,111.93,0,250,0z"
	/>
</g></g><g transform="translate(385,350) scale(0.07,0.07)"><g transform="" style="fill: rgb(165, 25, 25);">
<path d="M250,0c138.077,0,250,111.93,250,250c0,138.077-111.923,250-250,250C111.93,500,0,388.077,0,250C0,111.93,111.93,0,250,0z"
	/>
</g></g><g transform="translate(420,350) scale(0.07,0.07)"><g transform="" style="fill: rgb(165, 25, 25);">
<path d="M250,0c138.077,0,250,111.93,250,250c0,138.077-111.923,250-250,250C111.93,500,0,388.077,0,250C0,111.93,111.93,0,250,0z"
	/>
</g></g><g transform="translate(455,350) scale(0.07,0.07)"><g transform="" style="fill: rgb(165, 25, 25);">
<path d="M250,0c138.077,0,250,111.93,250,250c0,138.077-111.923,250-250,250C111.93,500,0,388.077,0,250C0,111.93,111.93,0,250,0z"
	/>
</g></g><g transform="translate(490,350) scale(0.07,0.07)"><g transform="" style="fill: rgb(165, 25, 25);">
<path d="M250,0c138.077,0,250,111.93,250,250c0,138.077-111.923,250-250,250C111.93,500,0,388.077,0,250C0,111.93,111.93,0,250,0z"
	/>
</g></g><g transform="translate(525,350) scale(0.07,0.07)"><g transform="" style="fill: rgb(165, 25, 25);">
<path d="M250,0c138.077,0,250,111.93,250,250c0,138.077-111.923,250-250,250C111.93,500,0,388.077,0,250C0,111.93,111.93,0,250,0z"
	/>
</g></g><g transform="translate(595,350) scale(0.07,0.07)"><g transform="" style="fill: rgb(165, 25, 25);">
<path d="M250,0c138.077,0,250,111.93,250,250c0,138.077-111.923,250-250,250C111.93,500,0,388.077,0,250C0,111.93,111.93,0,250,0z"
	/>
</g></g><g transform="translate(665,350) scale(0.07,0.07)"><g transform="" style="fill: rgb(165, 25, 25);">
<path d="M250,0c138.077,0,250,111.93,250,250c0,138.077-111.923,250-250,250C111.93,500,0,388.077,0,250C0,111.93,111.93,0,250,0z"
	/>
</g></g><g transform="translate(700,350) scale(0.07,0.07)"><g transform="" style="fill: rgb(165, 25, 25);">
<path d="M250,0c138.077,0,250,111.93,250,250c0,138.077-111.923,250-250,250C111.93,500,0,388.077,0,250C0,111.93,111.93,0,250,0z"
	/>
</g></g><g transform="translate(770,350) scale(0.07,0.07)"><g transform="" style="fill: rgb(165, 25, 25);">
<path d="M250,0c138.077,0,250,111.93,250,250c0,138.077-111.923,250-250,250C111.93,500,0,388.077,0,250C0,111.93,111.93,0,250,0z"
	/>
</g></g><g transform="translate(875,350) scale(0.07,0.07)"><g transform="" style="fill: rgb(165, 25, 25);">
<path d="M250,0c138.077,0,250,111.93,250,250c0,138.077-111.923,250-250,250C111.93,500,0,388.077,0,250C0,111.93,111.93,0,250,0z"
	/>
</g></g><g transform="translate(910,350) scale(0.07,0.07)"><g transform="" style="fill: rgb(165, 25, 25);">
<path d="M250,0c138.077,0,250,111.93,250,250c0,138.077-111.923,250-250,250C111.93,500,0,388.077,0,250C0,111.93,111.93,0,250,0z"
	/>
</g></g><g transform="translate(945,350) scale(0.07,0.07)"><g transform="" style="fill: rgb(165, 25, 25);">
<path d="M250,0c138.077,0,250,111.93,250,250c0,138.077-111.923,250-250,250C111.93,500,0,388.077,0,250C0,111.93,111.93,0,250,0z"
	/>
</g></g><g transform="translate(0,385) scale(0.07,0.07)"><g transform="" style="fill: rgb(165, 25, 25);">
<path d="M250,0c138.077,0,250,111.93,250,250c0,138.077-111.923,250-250,250C111.93,500,0,388.077,0,250C0,111.93,111.93,0,250,0z"
	/>
</g></g><g transform="translate(70,385) scale(0.07,0.07)"><g transform="" style="fill: rgb(165, 25, 25);">
<path d="M250,0c138.077,0,250,111.93,250,250c0,138.077-111.923,250-250,250C111.93,500,0,388.077,0,250C0,111.93,111.93,0,250,0z"
	/>
</g></g><g transform="translate(105,385) scale(0.07,0.07)"><g transform="" style="fill: rgb(165, 25, 25);">
<path d="M250,0c138.077,0,250,111.93,250,250c0,138.077-111.923,250-250,250C111.93,500,0,388.077,0,250C0,111.93,111.93,0,250,0z"
	/>
</g></g><g transform="translate(175,385) scale(0.07,0.07)"><g transform="" style="fill: rgb(165, 25, 25);">
<path d="M250,0c138.077,0,250,111.93,250,250c0,138.077-111.923,250-250,250C111.93,500,0,388.077,0,250C0,111.93,111.93,0,250,0z"
	/>
</g></g><g transform="translate(245,385) scale(0.07,0.07)"><g transform="" style="fill: rgb(165, 25, 25);">
<path d="M250,0c138.077,0,250,111.93,250,250c0,138.077-111.923,250-250,250C111.93,500,0,388.077,0,250C0,111.93,111.93,0,250,0z"
	/>
</g></g><g transform="translate(315,385) scale(0.07,0.07)"><g transform="" style="fill: rgb(165, 25, 25);">
<path d="M250,0c138.077,0,250,111.93,250,250c0,138.077-111.923,250-250,250C111.93,500,0,388.077,0,250C0,111.93,111.93,0,250,0z"
	/>
</g></g><g transform="translate(350,385) scale(0.07,0.07)"><g transform="" style="fill: rgb(165, 25, 25);">
<path d="M250,0c138.077,0,250,111.93,250,250c0,138.077-111.923,250-250,250C111.93,500,0,388.077,0,250C0,111.93,111.93,0,250,0z"
	/>
</g></g><g transform="translate(455,385) scale(0.07,0.07)"><g transform="" style="fill: rgb(165, 25, 25);">
<path d="M250,0c138.077,0,250,111.93,250,250c0,138.077-111.923,250-250,250C111.93,500,0,388.077,0,250C0,111.93,111.93,0,250,0z"
	/>
</g></g><g transform="translate(560,385) scale(0.07,0.07)"><g transform="" style="fill: rgb(165, 25, 25);">
<path d="M250,0c138.077,0,250,111.93,250,250c0,138.077-111.923,250-250,250C111.93,500,0,388.077,0,250C0,111.93,111.93,0,250,0z"
	/>
</g></g><g transform="translate(630,385) scale(0.07,0.07)"><g transform="" style="fill: rgb(165, 25, 25);">
<path d="M250,0c138.077,0,250,111.93,250,250c0,138.077-111.923,250-250,250C111.93,500,0,388.077,0,250C0,111.93,111.93,0,250,0z"
	/>
</g></g><g transform="translate(665,385) scale(0.07,0.07)"><g transform="" style="fill: rgb(165, 25, 25);">
<path d="M250,0c138.077,0,250,111.93,250,250c0,138.077-111.923,250-250,250C111.93,500,0,388.077,0,250C0,111.93,111.93,0,250,0z"
	/>
</g></g><g transform="translate(700,385) scale(0.07,0.07)"><g transform="" style="fill: rgb(165, 25, 25);">
<path d="M250,0c138.077,0,250,111.93,250,250c0,138.077-111.923,250-250,250C111.93,500,0,388.077,0,250C0,111.93,111.93,0,250,0z"
	/>
</g></g><g transform="translate(770,385) scale(0.07,0.07)"><g transform="" style="fill: rgb(165, 25, 25);">
<path d="M250,0c138.077,0,250,111.93,250,250c0,138.077-111.923,250-250,250C111.93,500,0,388.077,0,250C0,111.93,111.93,0,250,0z"
	/>
</g></g><g transform="translate(910,385) scale(0.07,0.07)"><g transform="" style="fill: rgb(165, 25, 25);">
<path d="M250,0c138.077,0,250,111.93,250,250c0,138.077-111.923,250-250,250C111.93,500,0,388.077,0,250C0,111.93,111.93,0,250,0z"
	/>
</g></g><g transform="translate(945,385) scale(0.07,0.07)"><g transform="" style="fill: rgb(165, 25, 25);">
<path d="M250,0c138.077,0,250,111.93,250,250c0,138.077-111.923,250-250,250C111.93,500,0,388.077,0,250C0,111.93,111.93,0,250,0z"
	/>
</g></g><g transform="translate(105,420) scale(0.07,0.07)"><g transform="" style="fill: rgb(165, 25, 25);">
<path d="M250,0c138.077,0,250,111.93,250,250c0,138.077-111.923,250-250,250C111.93,500,0,388.077,0,250C0,111.93,111.93,0,250,0z"
	/>
</g></g><g transform="translate(140,420) scale(0.07,0.07)"><g transform="" style="fill: rgb(165, 25, 25);">
<path d="M250,0c138.077,0,250,111.93,250,250c0,138.077-111.923,250-250,250C111.93,500,0,388.077,0,250C0,111.93,111.93,0,250,0z"
	/>
</g></g><g transform="translate(175,420) scale(0.07,0.07)"><g transform="" style="fill: rgb(165, 25, 25);">
<path d="M250,0c138.077,0,250,111.93,250,250c0,138.077-111.923,250-250,250C111.93,500,0,388.077,0,250C0,111.93,111.93,0,250,0z"
	/>
</g></g><g transform="translate(210,420) scale(0.07,0.07)"><g transform="" style="fill: rgb(165, 25, 25);">
<path d="M250,0c138.077,0,250,111.93,250,250c0,138.077-111.923,250-250,250C111.93,500,0,388.077,0,250C0,111.93,111.93,0,250,0z"
	/>
</g></g><g transform="translate(315,420) scale(0.07,0.07)"><g transform="" style="fill: rgb(165, 25, 25);">
<path d="M250,0c138.077,0,250,111.93,250,250c0,138.077-111.923,250-250,250C111.93,500,0,388.077,0,250C0,111.93,111.93,0,250,0z"
	/>
</g></g><g transform="translate(350,420) scale(0.07,0.07)"><g transform="" style="fill: rgb(165, 25, 25);">
<path d="M250,0c138.077,0,250,111.93,250,250c0,138.077-111.923,250-250,250C111.93,500,0,388.077,0,250C0,111.93,111.93,0,250,0z"
	/>
</g></g><g transform="translate(385,420) scale(0.07,0.07)"><g transform="" style="fill: rgb(165, 25, 25);">
<path d="M250,0c138.077,0,250,111.93,250,250c0,138.077-111.923,250-250,250C111.93,500,0,388.077,0,250C0,111.93,111.93,0,250,0z"
	/>
</g></g><g transform="translate(490,420) scale(0.07,0.07)"><g transform="" style="fill: rgb(165, 25, 25);">
<path d="M250,0c138.077,0,250,111.93,250,250c0,138.077-111.923,250-250,250C111.93,500,0,388.077,0,250C0,111.93,111.93,0,250,0z"
	/>
</g></g><g transform="translate(525,420) scale(0.07,0.07)"><g transform="" style="fill: rgb(165, 25, 25);">
<path d="M250,0c138.077,0,250,111.93,250,250c0,138.077-111.923,250-250,250C111.93,500,0,388.077,0,250C0,111.93,111.93,0,250,0z"
	/>
</g></g><g transform="translate(560,420) scale(0.07,0.07)"><g transform="" style="fill: rgb(165, 25, 25);">
<path d="M250,0c138.077,0,250,111.93,250,250c0,138.077-111.923,250-250,250C111.93,500,0,388.077,0,250C0,111.93,111.93,0,250,0z"
	/>
</g></g><g transform="translate(595,420) scale(0.07,0.07)"><g transform="" style="fill: rgb(165, 25, 25);">
<path d="M250,0c138.077,0,250,111.93,250,250c0,138.077-111.923,250-250,250C111.93,500,0,388.077,0,250C0,111.93,111.93,0,250,0z"
	/>
</g></g><g transform="translate(630,420) scale(0.07,0.07)"><g transform="" style="fill: rgb(165, 25, 25);">
<path d="M250,0c138.077,0,250,111.93,250,250c0,138.077-111.923,250-250,250C111.93,500,0,388.077,0,250C0,111.93,111.93,0,250,0z"
	/>
</g></g><g transform="translate(665,420) scale(0.07,0.07)"><g transform="" style="fill: rgb(165, 25, 25);">
<path d="M250,0c138.077,0,250,111.93,250,250c0,138.077-111.923,250-250,250C111.93,500,0,388.077,0,250C0,111.93,111.93,0,250,0z"
	/>
</g></g><g transform="translate(700,420) scale(0.07,0.07)"><g transform="" style="fill: rgb(165, 25, 25);">
<path d="M250,0c138.077,0,250,111.93,250,250c0,138.077-111.923,250-250,250C111.93,500,0,388.077,0,250C0,111.93,111.93,0,250,0z"
	/>
</g></g><g transform="translate(735,420) scale(0.07,0.07)"><g transform="" style="fill: rgb(165, 25, 25);">
<path d="M250,0c138.077,0,250,111.93,250,250c0,138.077-111.923,250-250,250C111.93,500,0,388.077,0,250C0,111.93,111.93,0,250,0z"
	/>
</g></g><g transform="translate(770,420) scale(0.07,0.07)"><g transform="" style="fill: rgb(165, 25, 25);">
<path d="M250,0c138.077,0,250,111.93,250,250c0,138.077-111.923,250-250,250C111.93,500,0,388.077,0,250C0,111.93,111.93,0,250,0z"
	/>
</g></g><g transform="translate(805,420) scale(0.07,0.07)"><g transform="" style="fill: rgb(165, 25, 25);">
<path d="M250,0c138.077,0,250,111.93,250,250c0,138.077-111.923,250-250,250C111.93,500,0,388.077,0,250C0,111.93,111.93,0,250,0z"
	/>
</g></g><g transform="translate(875,420) scale(0.07,0.07)"><g transform="" style="fill: rgb(165, 25, 25);">
<path d="M250,0c138.077,0,250,111.93,250,250c0,138.077-111.923,250-250,250C111.93,500,0,388.077,0,250C0,111.93,111.93,0,250,0z"
	/>
</g></g><g transform="translate(945,420) scale(0.07,0.07)"><g transform="" style="fill: rgb(165, 25, 25);">
<path d="M250,0c138.077,0,250,111.93,250,250c0,138.077-111.923,250-250,250C111.93,500,0,388.077,0,250C0,111.93,111.93,0,250,0z"
	/>
</g></g><g transform="translate(980,420) scale(0.07,0.07)"><g transform="" style="fill: rgb(165, 25, 25);">
<path d="M250,0c138.077,0,250,111.93,250,250c0,138.077-111.923,250-250,250C111.93,500,0,388.077,0,250C0,111.93,111.93,0,250,0z"
	/>
</g></g><g transform="translate(0,455) scale(0.07,0.07)"><g transform="" style="fill: rgb(165, 25, 25);">
<path d="M250,0c138.077,0,250,111.93,250,250c0,138.077-111.923,250-250,250C111.93,500,0,388.077,0,250C0,111.93,111.93,0,250,0z"
	/>
</g></g><g transform="translate(70,455) scale(0.07,0.07)"><g transform="" style="fill: rgb(165, 25, 25);">
<path d="M250,0c138.077,0,250,111.93,250,250c0,138.077-111.923,250-250,250C111.93,500,0,388.077,0,250C0,111.93,111.93,0,250,0z"
	/>
</g></g><g transform="translate(175,455) scale(0.07,0.07)"><g transform="" style="fill: rgb(165, 25, 25);">
<path d="M250,0c138.077,0,250,111.93,250,250c0,138.077-111.923,250-250,250C111.93,500,0,388.077,0,250C0,111.93,111.93,0,250,0z"
	/>
</g></g><g transform="translate(420,455) scale(0.07,0.07)"><g transform="" style="fill: rgb(165, 25, 25);">
<path d="M250,0c138.077,0,250,111.93,250,250c0,138.077-111.923,250-250,250C111.93,500,0,388.077,0,250C0,111.93,111.93,0,250,0z"
	/>
</g></g><g transform="translate(455,455) scale(0.07,0.07)"><g transform="" style="fill: rgb(165, 25, 25);">
<path d="M250,0c138.077,0,250,111.93,250,250c0,138.077-111.923,250-250,250C111.93,500,0,388.077,0,250C0,111.93,111.93,0,250,0z"
	/>
</g></g><g transform="translate(490,455) scale(0.07,0.07)"><g transform="" style="fill: rgb(165, 25, 25);">
<path d="M250,0c138.077,0,250,111.93,250,250c0,138.077-111.923,250-250,250C111.93,500,0,388.077,0,250C0,111.93,111.93,0,250,0z"
	/>
</g></g><g transform="translate(525,455) scale(0.07,0.07)"><g transform="" style="fill: rgb(165, 25, 25);">
<path d="M250,0c138.077,0,250,111.93,250,250c0,138.077-111.923,250-250,250C111.93,500,0,388.077,0,250C0,111.93,111.93,0,250,0z"
	/>
</g></g><g transform="translate(560,455) scale(0.07,0.07)"><g transform="" style="fill: rgb(165, 25, 25);">
<path d="M250,0c138.077,0,250,111.93,250,250c0,138.077-111.923,250-250,250C111.93,500,0,388.077,0,250C0,111.93,111.93,0,250,0z"
	/>
</g></g><g transform="translate(665,455) scale(0.07,0.07)"><g transform="" style="fill: rgb(165, 25, 25);">
<path d="M250,0c138.077,0,250,111.93,250,250c0,138.077-111.923,250-250,250C111.93,500,0,388.077,0,250C0,111.93,111.93,0,250,0z"
	/>
</g></g><g transform="translate(700,455) scale(0.07,0.07)"><g transform="" style="fill: rgb(165, 25, 25);">
<path d="M250,0c138.077,0,250,111.93,250,250c0,138.077-111.923,250-250,250C111.93,500,0,388.077,0,250C0,111.93,111.93,0,250,0z"
	/>
</g></g><g transform="translate(735,455) scale(0.07,0.07)"><g transform="" style="fill: rgb(165, 25, 25);">
<path d="M250,0c138.077,0,250,111.93,250,250c0,138.077-111.923,250-250,250C111.93,500,0,388.077,0,250C0,111.93,111.93,0,250,0z"
	/>
</g></g><g transform="translate(140,490) scale(0.07,0.07)"><g transform="" style="fill: rgb(165, 25, 25);">
<path d="M250,0c138.077,0,250,111.93,250,250c0,138.077-111.923,250-250,250C111.93,500,0,388.077,0,250C0,111.93,111.93,0,250,0z"
	/>
</g></g><g transform="translate(175,490) scale(0.07,0.07)"><g transform="" style="fill: rgb(165, 25, 25);">
<path d="M250,0c138.077,0,250,111.93,250,250c0,138.077-111.923,250-250,250C111.93,500,0,388.077,0,250C0,111.93,111.93,0,250,0z"
	/>
</g></g><g transform="translate(210,490) scale(0.07,0.07)"><g transform="" style="fill: rgb(165, 25, 25);">
<path d="M250,0c138.077,0,250,111.93,250,250c0,138.077-111.923,250-250,250C111.93,500,0,388.077,0,250C0,111.93,111.93,0,250,0z"
	/>
</g></g><g transform="translate(245,490) scale(0.07,0.07)"><g transform="" style="fill: rgb(165, 25, 25);">
<path d="M250,0c138.077,0,250,111.93,250,250c0,138.077-111.923,250-250,250C111.93,500,0,388.077,0,250C0,111.93,111.93,0,250,0z"
	/>
</g></g><g transform="translate(280,490) scale(0.07,0.07)"><g transform="" style="fill: rgb(165, 25, 25);">
<path d="M250,0c138.077,0,250,111.93,250,250c0,138.077-111.923,250-250,250C111.93,500,0,388.077,0,250C0,111.93,111.93,0,250,0z"
	/>
</g></g><g transform="translate(350,490) scale(0.07,0.07)"><g transform="" style="fill: rgb(165, 25, 25);">
<path d="M250,0c138.077,0,250,111.93,250,250c0,138.077-111.923,250-250,250C111.93,500,0,388.077,0,250C0,111.93,111.93,0,250,0z"
	/>
</g></g><g transform="translate(420,490) scale(0.07,0.07)"><g transform="" style="fill: rgb(165, 25, 25);">
<path d="M250,0c138.077,0,250,111.93,250,250c0,138.077-111.923,250-250,250C111.93,500,0,388.077,0,250C0,111.93,111.93,0,250,0z"
	/>
</g></g><g transform="translate(455,490) scale(0.07,0.07)"><g transform="" style="fill: rgb(165, 25, 25);">
<path d="M250,0c138.077,0,250,111.93,250,250c0,138.077-111.923,250-250,250C111.93,500,0,388.077,0,250C0,111.93,111.93,0,250,0z"
	/>
</g></g><g transform="translate(490,490) scale(0.07,0.07)"><g transform="" style="fill: rgb(165, 25, 25);">
<path d="M250,0c138.077,0,250,111.93,250,250c0,138.077-111.923,250-250,250C111.93,500,0,388.077,0,250C0,111.93,111.93,0,250,0z"
	/>
</g></g><g transform="translate(770,490) scale(0.07,0.07)"><g transform="" style="fill: rgb(165, 25, 25);">
<path d="M250,0c138.077,0,250,111.93,250,250c0,138.077-111.923,250-250,250C111.93,500,0,388.077,0,250C0,111.93,111.93,0,250,0z"
	/>
</g></g><g transform="translate(840,490) scale(0.07,0.07)"><g transform="" style="fill: rgb(165, 25, 25);">
<path d="M250,0c138.077,0,250,111.93,250,250c0,138.077-111.923,250-250,250C111.93,500,0,388.077,0,250C0,111.93,111.93,0,250,0z"
	/>
</g></g><g transform="translate(875,490) scale(0.07,0.07)"><g transform="" style="fill: rgb(165, 25, 25);">
<path d="M250,0c138.077,0,250,111.93,250,250c0,138.077-111.923,250-250,250C111.93,500,0,388.077,0,250C0,111.93,111.93,0,250,0z"
	/>
</g></g><g transform="translate(910,490) scale(0.07,0.07)"><g transform="" style="fill: rgb(165, 25, 25);">
<path d="M250,0c138.077,0,250,111.93,250,250c0,138.077-111.923,250-250,250C111.93,500,0,388.077,0,250C0,111.93,111.93,0,250,0z"
	/>
</g></g><g transform="translate(945,490) scale(0.07,0.07)"><g transform="" style="fill: rgb(165, 25, 25);">
<path d="M250,0c138.077,0,250,111.93,250,250c0,138.077-111.923,250-250,250C111.93,500,0,388.077,0,250C0,111.93,111.93,0,250,0z"
	/>
</g></g><g transform="translate(980,490) scale(0.07,0.07)"><g transform="" style="fill: rgb(165, 25, 25);">
<path d="M250,0c138.077,0,250,111.93,250,250c0,138.077-111.923,250-250,250C111.93,500,0,388.077,0,250C0,111.93,111.93,0,250,0z"
	/>
</g></g><g transform="translate(0,525) scale(0.07,0.07)"><g transform="" style="fill: rgb(165, 25, 25);">
<path d="M250,0c138.077,0,250,111.93,250,250c0,138.077-111.923,250-250,250C111.93,500,0,388.077,0,250C0,111.93,111.93,0,250,0z"
	/>
</g></g><g transform="translate(70,525) scale(0.07,0.07)"><g transform="" style="fill: rgb(165, 25, 25);">
<path d="M250,0c138.077,0,250,111.93,250,250c0,138.077-111.923,250-250,250C111.93,500,0,388.077,0,250C0,111.93,111.93,0,250,0z"
	/>
</g></g><g transform="translate(245,525) scale(0.07,0.07)"><g transform="" style="fill: rgb(165, 25, 25);">
<path d="M250,0c138.077,0,250,111.93,250,250c0,138.077-111.923,250-250,250C111.93,500,0,388.077,0,250C0,111.93,111.93,0,250,0z"
	/>
</g></g><g transform="translate(280,525) scale(0.07,0.07)"><g transform="" style="fill: rgb(165, 25, 25);">
<path d="M250,0c138.077,0,250,111.93,250,250c0,138.077-111.923,250-250,250C111.93,500,0,388.077,0,250C0,111.93,111.93,0,250,0z"
	/>
</g></g><g transform="translate(315,525) scale(0.07,0.07)"><g transform="" style="fill: rgb(165, 25, 25);">
<path d="M250,0c138.077,0,250,111.93,250,250c0,138.077-111.923,250-250,250C111.93,500,0,388.077,0,250C0,111.93,111.93,0,250,0z"
	/>
</g></g><g transform="translate(560,525) scale(0.07,0.07)"><g transform="" style="fill: rgb(165, 25, 25);">
<path d="M250,0c138.077,0,250,111.93,250,250c0,138.077-111.923,250-250,250C111.93,500,0,388.077,0,250C0,111.93,111.93,0,250,0z"
	/>
</g></g><g transform="translate(595,525) scale(0.07,0.07)"><g transform="" style="fill: rgb(165, 25, 25);">
<path d="M250,0c138.077,0,250,111.93,250,250c0,138.077-111.923,250-250,250C111.93,500,0,388.077,0,250C0,111.93,111.93,0,250,0z"
	/>
</g></g><g transform="translate(630,525) scale(0.07,0.07)"><g transform="" style="fill: rgb(165, 25, 25);">
<path d="M250,0c138.077,0,250,111.93,250,250c0,138.077-111.923,250-250,250C111.93,500,0,388.077,0,250C0,111.93,111.93,0,250,0z"
	/>
</g></g><g transform="translate(665,525) scale(0.07,0.07)"><g transform="" style="fill: rgb(165, 25, 25);">
<path d="M250,0c138.077,0,250,111.93,250,250c0,138.077-111.923,250-250,250C111.93,500,0,388.077,0,250C0,111.93,111.93,0,250,0z"
	/>
</g></g><g transform="translate(700,525) scale(0.07,0.07)"><g transform="" style="fill: rgb(165, 25, 25);">
<path d="M250,0c138.077,0,250,111.93,250,250c0,138.077-111.923,250-250,250C111.93,500,0,388.077,0,250C0,111.93,111.93,0,250,0z"
	/>
</g></g><g transform="translate(805,525) scale(0.07,0.07)"><g transform="" style="fill: rgb(165, 25, 25);">
<path d="M250,0c138.077,0,250,111.93,250,250c0,138.077-111.923,250-250,250C111.93,500,0,388.077,0,250C0,111.93,111.93,0,250,0z"
	/>
</g></g><g transform="translate(875,525) scale(0.07,0.07)"><g transform="" style="fill: rgb(165, 25, 25);">
<path d="M250,0c138.077,0,250,111.93,250,250c0,138.077-111.923,250-250,250C111.93,500,0,388.077,0,250C0,111.93,111.93,0,250,0z"
	/>
</g></g><g transform="translate(945,525) scale(0.07,0.07)"><g transform="" style="fill: rgb(165, 25, 25);">
<path d="M250,0c138.077,0,250,111.93,250,250c0,138.077-111.923,250-250,250C111.93,500,0,388.077,0,250C0,111.93,111.93,0,250,0z"
	/>
</g></g><g transform="translate(35,560) scale(0.07,0.07)"><g transform="" style="fill: rgb(165, 25, 25);">
<path d="M250,0c138.077,0,250,111.93,250,250c0,138.077-111.923,250-250,250C111.93,500,0,388.077,0,250C0,111.93,111.93,0,250,0z"
	/>
</g></g><g transform="translate(70,560) scale(0.07,0.07)"><g transform="" style="fill: rgb(165, 25, 25);">
<path d="M250,0c138.077,0,250,111.93,250,250c0,138.077-111.923,250-250,250C111.93,500,0,388.077,0,250C0,111.93,111.93,0,250,0z"
	/>
</g></g><g transform="translate(175,560) scale(0.07,0.07)"><g transform="" style="fill: rgb(165, 25, 25);">
<path d="M250,0c138.077,0,250,111.93,250,250c0,138.077-111.923,250-250,250C111.93,500,0,388.077,0,250C0,111.93,111.93,0,250,0z"
	/>
</g></g><g transform="translate(210,560) scale(0.07,0.07)"><g transform="" style="fill: rgb(165, 25, 25);">
<path d="M250,0c138.077,0,250,111.93,250,250c0,138.077-111.923,250-250,250C111.93,500,0,388.077,0,250C0,111.93,111.93,0,250,0z"
	/>
</g></g><g transform="translate(280,560) scale(0.07,0.07)"><g transform="" style="fill: rgb(165, 25, 25);">
<path d="M250,0c138.077,0,250,111.93,250,250c0,138.077-111.923,250-250,250C111.93,500,0,388.077,0,250C0,111.93,111.93,0,250,0z"
	/>
</g></g><g transform="translate(315,560) scale(0.07,0.07)"><g transform="" style="fill: rgb(165, 25, 25);">
<path d="M250,0c138.077,0,250,111.93,250,250c0,138.077-111.923,250-250,250C111.93,500,0,388.077,0,250C0,111.93,111.93,0,250,0z"
	/>
</g></g><g transform="translate(455,560) scale(0.07,0.07)"><g transform="" style="fill: rgb(165, 25, 25);">
<path d="M250,0c138.077,0,250,111.93,250,250c0,138.077-111.923,250-250,250C111.93,500,0,388.077,0,250C0,111.93,111.93,0,250,0z"
	/>
</g></g><g transform="translate(525,560) scale(0.07,0.07)"><g transform="" style="fill: rgb(165, 25, 25);">
<path d="M250,0c138.077,0,250,111.93,250,250c0,138.077-111.923,250-250,250C111.93,500,0,388.077,0,250C0,111.93,111.93,0,250,0z"
	/>
</g></g><g transform="translate(595,560) scale(0.07,0.07)"><g transform="" style="fill: rgb(165, 25, 25);">
<path d="M250,0c138.077,0,250,111.93,250,250c0,138.077-111.923,250-250,250C111.93,500,0,388.077,0,250C0,111.93,111.93,0,250,0z"
	/>
</g></g><g transform="translate(665,560) scale(0.07,0.07)"><g transform="" style="fill: rgb(165, 25, 25);">
<path d="M250,0c138.077,0,250,111.93,250,250c0,138.077-111.923,250-250,250C111.93,500,0,388.077,0,250C0,111.93,111.93,0,250,0z"
	/>
</g></g><g transform="translate(735,560) scale(0.07,0.07)"><g transform="" style="fill: rgb(165, 25, 25);">
<path d="M250,0c138.077,0,250,111.93,250,250c0,138.077-111.923,250-250,250C111.93,500,0,388.077,0,250C0,111.93,111.93,0,250,0z"
	/>
</g></g><g transform="translate(945,560) scale(0.07,0.07)"><g transform="" style="fill: rgb(165, 25, 25);">
<path d="M250,0c138.077,0,250,111.93,250,250c0,138.077-111.923,250-250,250C111.93,500,0,388.077,0,250C0,111.93,111.93,0,250,0z"
	/>
</g></g><g transform="translate(35,595) scale(0.07,0.07)"><g transform="" style="fill: rgb(165, 25, 25);">
<path d="M250,0c138.077,0,250,111.93,250,250c0,138.077-111.923,250-250,250C111.93,500,0,388.077,0,250C0,111.93,111.93,0,250,0z"
	/>
</g></g><g transform="translate(70,595) scale(0.07,0.07)"><g transform="" style="fill: rgb(165, 25, 25);">
<path d="M250,0c138.077,0,250,111.93,250,250c0,138.077-111.923,250-250,250C111.93,500,0,388.077,0,250C0,111.93,111.93,0,250,0z"
	/>
</g></g><g transform="translate(105,595) scale(0.07,0.07)"><g transform="" style="fill: rgb(165, 25, 25);">
<path d="M250,0c138.077,0,250,111.93,250,250c0,138.077-111.923,250-250,250C111.93,500,0,388.077,0,250C0,111.93,111.93,0,250,0z"
	/>
</g></g><g transform="translate(140,595) scale(0.07,0.07)"><g transform="" style="fill: rgb(165, 25, 25);">
<path d="M250,0c138.077,0,250,111.93,250,250c0,138.077-111.923,250-250,250C111.93,500,0,388.077,0,250C0,111.93,111.93,0,250,0z"
	/>
</g></g><g transform="translate(175,595) scale(0.07,0.07)"><g transform="" style="fill: rgb(165, 25, 25);">
<path d="M250,0c138.077,0,250,111.93,250,250c0,138.077-111.923,250-250,250C111.93,500,0,388.077,0,250C0,111.93,111.93,0,250,0z"
	/>
</g></g><g transform="translate(420,595) scale(0.07,0.07)"><g transform="" style="fill: rgb(165, 25, 25);">
<path d="M250,0c138.077,0,250,111.93,250,250c0,138.077-111.923,250-250,250C111.93,500,0,388.077,0,250C0,111.93,111.93,0,250,0z"
	/>
</g></g><g transform="translate(455,595) scale(0.07,0.07)"><g transform="" style="fill: rgb(165, 25, 25);">
<path d="M250,0c138.077,0,250,111.93,250,250c0,138.077-111.923,250-250,250C111.93,500,0,388.077,0,250C0,111.93,111.93,0,250,0z"
	/>
</g></g><g transform="translate(490,595) scale(0.07,0.07)"><g transform="" style="fill: rgb(165, 25, 25);">
<path d="M250,0c138.077,0,250,111.93,250,250c0,138.077-111.923,250-250,250C111.93,500,0,388.077,0,250C0,111.93,111.93,0,250,0z"
	/>
</g></g><g transform="translate(595,595) scale(0.07,0.07)"><g transform="" style="fill: rgb(165, 25, 25);">
<path d="M250,0c138.077,0,250,111.93,250,250c0,138.077-111.923,250-250,250C111.93,500,0,388.077,0,250C0,111.93,111.93,0,250,0z"
	/>
</g></g><g transform="translate(770,595) scale(0.07,0.07)"><g transform="" style="fill: rgb(165, 25, 25);">
<path d="M250,0c138.077,0,250,111.93,250,250c0,138.077-111.923,250-250,250C111.93,500,0,388.077,0,250C0,111.93,111.93,0,250,0z"
	/>
</g></g><g transform="translate(805,595) scale(0.07,0.07)"><g transform="" style="fill: rgb(165, 25, 25);">
<path d="M250,0c138.077,0,250,111.93,250,250c0,138.077-111.923,250-250,250C111.93,500,0,388.077,0,250C0,111.93,111.93,0,250,0z"
	/>
</g></g><g transform="translate(875,595) scale(0.07,0.07)"><g transform="" style="fill: rgb(165, 25, 25);">
<path d="M250,0c138.077,0,250,111.93,250,250c0,138.077-111.923,250-250,250C111.93,500,0,388.077,0,250C0,111.93,111.93,0,250,0z"
	/>
</g></g><g transform="translate(980,595) scale(0.07,0.07)"><g transform="" style="fill: rgb(165, 25, 25);">
<path d="M250,0c138.077,0,250,111.93,250,250c0,138.077-111.923,250-250,250C111.93,500,0,388.077,0,250C0,111.93,111.93,0,250,0z"
	/>
</g></g><g transform="translate(0,630) scale(0.07,0.07)"><g transform="" style="fill: rgb(165, 25, 25);">
<path d="M250,0c138.077,0,250,111.93,250,250c0,138.077-111.923,250-250,250C111.93,500,0,388.077,0,250C0,111.93,111.93,0,250,0z"
	/>
</g></g><g transform="translate(105,630) scale(0.07,0.07)"><g transform="" style="fill: rgb(165, 25, 25);">
<path d="M250,0c138.077,0,250,111.93,250,250c0,138.077-111.923,250-250,250C111.93,500,0,388.077,0,250C0,111.93,111.93,0,250,0z"
	/>
</g></g><g transform="translate(175,630) scale(0.07,0.07)"><g transform="" style="fill: rgb(165, 25, 25);">
<path d="M250,0c138.077,0,250,111.93,250,250c0,138.077-111.923,250-250,250C111.93,500,0,388.077,0,250C0,111.93,111.93,0,250,0z"
	/>
</g></g><g transform="translate(210,630) scale(0.07,0.07)"><g transform="" style="fill: rgb(165, 25, 25);">
<path d="M250,0c138.077,0,250,111.93,250,250c0,138.077-111.923,250-250,250C111.93,500,0,388.077,0,250C0,111.93,111.93,0,250,0z"
	/>
</g></g><g transform="translate(245,630) scale(0.07,0.07)"><g transform="" style="fill: rgb(165, 25, 25);">
<path d="M250,0c138.077,0,250,111.93,250,250c0,138.077-111.923,250-250,250C111.93,500,0,388.077,0,250C0,111.93,111.93,0,250,0z"
	/>
</g></g><g transform="translate(280,630) scale(0.07,0.07)"><g transform="" style="fill: rgb(165, 25, 25);">
<path d="M250,0c138.077,0,250,111.93,250,250c0,138.077-111.923,250-250,250C111.93,500,0,388.077,0,250C0,111.93,111.93,0,250,0z"
	/>
</g></g><g transform="translate(385,630) scale(0.07,0.07)"><g transform="" style="fill: rgb(165, 25, 25);">
<path d="M250,0c138.077,0,250,111.93,250,250c0,138.077-111.923,250-250,250C111.93,500,0,388.077,0,250C0,111.93,111.93,0,250,0z"
	/>
</g></g><g transform="translate(420,630) scale(0.07,0.07)"><g transform="" style="fill: rgb(165, 25, 25);">
<path d="M250,0c138.077,0,250,111.93,250,250c0,138.077-111.923,250-250,250C111.93,500,0,388.077,0,250C0,111.93,111.93,0,250,0z"
	/>
</g></g><g transform="translate(490,630) scale(0.07,0.07)"><g transform="" style="fill: rgb(165, 25, 25);">
<path d="M250,0c138.077,0,250,111.93,250,250c0,138.077-111.923,250-250,250C111.93,500,0,388.077,0,250C0,111.93,111.93,0,250,0z"
	/>
</g></g><g transform="translate(560,630) scale(0.07,0.07)"><g transform="" style="fill: rgb(165, 25, 25);">
<path d="M250,0c138.077,0,250,111.93,250,250c0,138.077-111.923,250-250,250C111.93,500,0,388.077,0,250C0,111.93,111.93,0,250,0z"
	/>
</g></g><g transform="translate(770,630) scale(0.07,0.07)"><g transform="" style="fill: rgb(165, 25, 25);">
<path d="M250,0c138.077,0,250,111.93,250,250c0,138.077-111.923,250-250,250C111.93,500,0,388.077,0,250C0,111.93,111.93,0,250,0z"
	/>
</g></g><g transform="translate(840,630) scale(0.07,0.07)"><g transform="" style="fill: rgb(165, 25, 25);">
<path d="M250,0c138.077,0,250,111.93,250,250c0,138.077-111.923,250-250,250C111.93,500,0,388.077,0,250C0,111.93,111.93,0,250,0z"
	/>
</g></g><g transform="translate(945,630) scale(0.07,0.07)"><g transform="" style="fill: rgb(165, 25, 25);">
<path d="M250,0c138.077,0,250,111.93,250,250c0,138.077-111.923,250-250,250C111.93,500,0,388.077,0,250C0,111.93,111.93,0,250,0z"
	/>
</g></g><g transform="translate(980,630) scale(0.07,0.07)"><g transform="" style="fill: rgb(165, 25, 25);">
<path d="M250,0c138.077,0,250,111.93,250,250c0,138.077-111.923,250-250,250C111.93,500,0,388.077,0,250C0,111.93,111.93,0,250,0z"
	/>
</g></g><g transform="translate(105,665) scale(0.07,0.07)"><g transform="" style="fill: rgb(165, 25, 25);">
<path d="M250,0c138.077,0,250,111.93,250,250c0,138.077-111.923,250-250,250C111.93,500,0,388.077,0,250C0,111.93,111.93,0,250,0z"
	/>
</g></g><g transform="translate(140,665) scale(0.07,0.07)"><g transform="" style="fill: rgb(165, 25, 25);">
<path d="M250,0c138.077,0,250,111.93,250,250c0,138.077-111.923,250-250,250C111.93,500,0,388.077,0,250C0,111.93,111.93,0,250,0z"
	/>
</g></g><g transform="translate(175,665) scale(0.07,0.07)"><g transform="" style="fill: rgb(165, 25, 25);">
<path d="M250,0c138.077,0,250,111.93,250,250c0,138.077-111.923,250-250,250C111.93,500,0,388.077,0,250C0,111.93,111.93,0,250,0z"
	/>
</g></g><g transform="translate(245,665) scale(0.07,0.07)"><g transform="" style="fill: rgb(165, 25, 25);">
<path d="M250,0c138.077,0,250,111.93,250,250c0,138.077-111.923,250-250,250C111.93,500,0,388.077,0,250C0,111.93,111.93,0,250,0z"
	/>
</g></g><g transform="translate(280,665) scale(0.07,0.07)"><g transform="" style="fill: rgb(165, 25, 25);">
<path d="M250,0c138.077,0,250,111.93,250,250c0,138.077-111.923,250-250,250C111.93,500,0,388.077,0,250C0,111.93,111.93,0,250,0z"
	/>
</g></g><g transform="translate(315,665) scale(0.07,0.07)"><g transform="" style="fill: rgb(165, 25, 25);">
<path d="M250,0c138.077,0,250,111.93,250,250c0,138.077-111.923,250-250,250C111.93,500,0,388.077,0,250C0,111.93,111.93,0,250,0z"
	/>
</g></g><g transform="translate(350,665) scale(0.07,0.07)"><g transform="" style="fill: rgb(165, 25, 25);">
<path d="M250,0c138.077,0,250,111.93,250,250c0,138.077-111.923,250-250,250C111.93,500,0,388.077,0,250C0,111.93,111.93,0,250,0z"
	/>
</g></g><g transform="translate(385,665) scale(0.07,0.07)"><g transform="" style="fill: rgb(165, 25, 25);">
<path d="M250,0c138.077,0,250,111.93,250,250c0,138.077-111.923,250-250,250C111.93,500,0,388.077,0,250C0,111.93,111.93,0,250,0z"
	/>
</g></g><g transform="translate(490,665) scale(0.07,0.07)"><g transform="" style="fill: rgb(165, 25, 25);">
<path d="M250,0c138.077,0,250,111.93,250,250c0,138.077-111.923,250-250,250C111.93,500,0,388.077,0,250C0,111.93,111.93,0,250,0z"
	/>
</g></g><g transform="translate(560,665) scale(0.07,0.07)"><g transform="" style="fill: rgb(165, 25, 25);">
<path d="M250,0c138.077,0,250,111.93,250,250c0,138.077-111.923,250-250,250C111.93,500,0,388.077,0,250C0,111.93,111.93,0,250,0z"
	/>
</g></g><g transform="translate(595,665) scale(0.07,0.07)"><g transform="" style="fill: rgb(165, 25, 25);">
<path d="M250,0c138.077,0,250,111.93,250,250c0,138.077-111.923,250-250,250C111.93,500,0,388.077,0,250C0,111.93,111.93,0,250,0z"
	/>
</g></g><g transform="translate(735,665) scale(0.07,0.07)"><g transform="" style="fill: rgb(165, 25, 25);">
<path d="M250,0c138.077,0,250,111.93,250,250c0,138.077-111.923,250-250,250C111.93,500,0,388.077,0,250C0,111.93,111.93,0,250,0z"
	/>
</g></g><g transform="translate(945,665) scale(0.07,0.07)"><g transform="" style="fill: rgb(165, 25, 25);">
<path d="M250,0c138.077,0,250,111.93,250,250c0,138.077-111.923,250-250,250C111.93,500,0,388.077,0,250C0,111.93,111.93,0,250,0z"
	/>
</g></g><g transform="translate(980,665) scale(0.07,0.07)"><g transform="" style="fill: rgb(165, 25, 25);">
<path d="M250,0c138.077,0,250,111.93,250,250c0,138.077-111.923,250-250,250C111.93,500,0,388.077,0,250C0,111.93,111.93,0,250,0z"
	/>
</g></g><g transform="translate(0,700) scale(0.07,0.07)"><g transform="" style="fill: rgb(165, 25, 25);">
<path d="M250,0c138.077,0,250,111.93,250,250c0,138.077-111.923,250-250,250C111.93,500,0,388.077,0,250C0,111.93,111.93,0,250,0z"
	/>
</g></g><g transform="translate(105,700) scale(0.07,0.07)"><g transform="" style="fill: rgb(165, 25, 25);">
<path d="M250,0c138.077,0,250,111.93,250,250c0,138.077-111.923,250-250,250C111.93,500,0,388.077,0,250C0,111.93,111.93,0,250,0z"
	/>
</g></g><g transform="translate(140,700) scale(0.07,0.07)"><g transform="" style="fill: rgb(165, 25, 25);">
<path d="M250,0c138.077,0,250,111.93,250,250c0,138.077-111.923,250-250,250C111.93,500,0,388.077,0,250C0,111.93,111.93,0,250,0z"
	/>
</g></g><g transform="translate(175,700) scale(0.07,0.07)"><g transform="" style="fill: rgb(165, 25, 25);">
<path d="M250,0c138.077,0,250,111.93,250,250c0,138.077-111.923,250-250,250C111.93,500,0,388.077,0,250C0,111.93,111.93,0,250,0z"
	/>
</g></g><g transform="translate(210,700) scale(0.07,0.07)"><g transform="" style="fill: rgb(165, 25, 25);">
<path d="M250,0c138.077,0,250,111.93,250,250c0,138.077-111.923,250-250,250C111.93,500,0,388.077,0,250C0,111.93,111.93,0,250,0z"
	/>
</g></g><g transform="translate(280,700) scale(0.07,0.07)"><g transform="" style="fill: rgb(165, 25, 25);">
<path d="M250,0c138.077,0,250,111.93,250,250c0,138.077-111.923,250-250,250C111.93,500,0,388.077,0,250C0,111.93,111.93,0,250,0z"
	/>
</g></g><g transform="translate(315,700) scale(0.07,0.07)"><g transform="" style="fill: rgb(165, 25, 25);">
<path d="M250,0c138.077,0,250,111.93,250,250c0,138.077-111.923,250-250,250C111.93,500,0,388.077,0,250C0,111.93,111.93,0,250,0z"
	/>
</g></g><g transform="translate(525,700) scale(0.07,0.07)"><g transform="" style="fill: rgb(165, 25, 25);">
<path d="M250,0c138.077,0,250,111.93,250,250c0,138.077-111.923,250-250,250C111.93,500,0,388.077,0,250C0,111.93,111.93,0,250,0z"
	/>
</g></g><g transform="translate(665,700) scale(0.07,0.07)"><g transform="" style="fill: rgb(165, 25, 25);">
<path d="M250,0c138.077,0,250,111.93,250,250c0,138.077-111.923,250-250,250C111.93,500,0,388.077,0,250C0,111.93,111.93,0,250,0z"
	/>
</g></g><g transform="translate(700,700) scale(0.07,0.07)"><g transform="" style="fill: rgb(165, 25, 25);">
<path d="M250,0c138.077,0,250,111.93,250,250c0,138.077-111.923,250-250,250C111.93,500,0,388.077,0,250C0,111.93,111.93,0,250,0z"
	/>
</g></g><g transform="translate(735,700) scale(0.07,0.07)"><g transform="" style="fill: rgb(165, 25, 25);">
<path d="M250,0c138.077,0,250,111.93,250,250c0,138.077-111.923,250-250,250C111.93,500,0,388.077,0,250C0,111.93,111.93,0,250,0z"
	/>
</g></g><g transform="translate(770,700) scale(0.07,0.07)"><g transform="" style="fill: rgb(165, 25, 25);">
<path d="M250,0c138.077,0,250,111.93,250,250c0,138.077-111.923,250-250,250C111.93,500,0,388.077,0,250C0,111.93,111.93,0,250,0z"
	/>
</g></g><g transform="translate(805,700) scale(0.07,0.07)"><g transform="" style="fill: rgb(165, 25, 25);">
<path d="M250,0c138.077,0,250,111.93,250,250c0,138.077-111.923,250-250,250C111.93,500,0,388.077,0,250C0,111.93,111.93,0,250,0z"
	/>
</g></g><g transform="translate(840,700) scale(0.07,0.07)"><g transform="" style="fill: rgb(165, 25, 25);">
<path d="M250,0c138.077,0,250,111.93,250,250c0,138.077-111.923,250-250,250C111.93,500,0,388.077,0,250C0,111.93,111.93,0,250,0z"
	/>
</g></g><g transform="translate(910,700) scale(0.07,0.07)"><g transform="" style="fill: rgb(165, 25, 25);">
<path d="M250,0c138.077,0,250,111.93,250,250c0,138.077-111.923,250-250,250C111.93,500,0,388.077,0,250C0,111.93,111.93,0,250,0z"
	/>
</g></g><g transform="translate(280,735) scale(0.07,0.07)"><g transform="" style="fill: rgb(165, 25, 25);">
<path d="M250,0c138.077,0,250,111.93,250,250c0,138.077-111.923,250-250,250C111.93,500,0,388.077,0,250C0,111.93,111.93,0,250,0z"
	/>
</g></g><g transform="translate(315,735) scale(0.07,0.07)"><g transform="" style="fill: rgb(165, 25, 25);">
<path d="M250,0c138.077,0,250,111.93,250,250c0,138.077-111.923,250-250,250C111.93,500,0,388.077,0,250C0,111.93,111.93,0,250,0z"
	/>
</g></g><g transform="translate(385,735) scale(0.07,0.07)"><g transform="" style="fill: rgb(165, 25, 25);">
<path d="M250,0c138.077,0,250,111.93,250,250c0,138.077-111.923,250-250,250C111.93,500,0,388.077,0,250C0,111.93,111.93,0,250,0z"
	/>
</g></g><g transform="translate(490,735) scale(0.07,0.07)"><g transform="" style="fill: rgb(165, 25, 25);">
<path d="M250,0c138.077,0,250,111.93,250,250c0,138.077-111.923,250-250,250C111.93,500,0,388.077,0,250C0,111.93,111.93,0,250,0z"
	/>
</g></g><g transform="translate(560,735) scale(0.07,0.07)"><g transform="" style="fill: rgb(165, 25, 25);">
<path d="M250,0c138.077,0,250,111.93,250,250c0,138.077-111.923,250-250,250C111.93,500,0,388.077,0,250C0,111.93,111.93,0,250,0z"
	/>
</g></g><g transform="translate(665,735) scale(0.07,0.07)"><g transform="" style="fill: rgb(165, 25, 25);">
<path d="M250,0c138.077,0,250,111.93,250,250c0,138.077-111.923,250-250,250C111.93,500,0,388.077,0,250C0,111.93,111.93,0,250,0z"
	/>
</g></g><g transform="translate(700,735) scale(0.07,0.07)"><g transform="" style="fill: rgb(165, 25, 25);">
<path d="M250,0c138.077,0,250,111.93,250,250c0,138.077-111.923,250-250,250C111.93,500,0,388.077,0,250C0,111.93,111.93,0,250,0z"
	/>
</g></g><g transform="translate(840,735) scale(0.07,0.07)"><g transform="" style="fill: rgb(165, 25, 25);">
<path d="M250,0c138.077,0,250,111.93,250,250c0,138.077-111.923,250-250,250C111.93,500,0,388.077,0,250C0,111.93,111.93,0,250,0z"
	/>
</g></g><g transform="translate(910,735) scale(0.07,0.07)"><g transform="" style="fill: rgb(165, 25, 25);">
<path d="M250,0c138.077,0,250,111.93,250,250c0,138.077-111.923,250-250,250C111.93,500,0,388.077,0,250C0,111.93,111.93,0,250,0z"
	/>
</g></g><g transform="translate(945,735) scale(0.07,0.07)"><g transform="" style="fill: rgb(165, 25, 25);">
<path d="M250,0c138.077,0,250,111.93,250,250c0,138.077-111.923,250-250,250C111.93,500,0,388.077,0,250C0,111.93,111.93,0,250,0z"
	/>
</g></g><g transform="translate(980,735) scale(0.07,0.07)"><g transform="" style="fill: rgb(165, 25, 25);">
<path d="M250,0c138.077,0,250,111.93,250,250c0,138.077-111.923,250-250,250C111.93,500,0,388.077,0,250C0,111.93,111.93,0,250,0z"
	/>
</g></g><g transform="translate(315,770) scale(0.07,0.07)"><g transform="" style="fill: rgb(165, 25, 25);">
<path d="M250,0c138.077,0,250,111.93,250,250c0,138.077-111.923,250-250,250C111.93,500,0,388.077,0,250C0,111.93,111.93,0,250,0z"
	/>
</g></g><g transform="translate(595,770) scale(0.07,0.07)"><g transform="" style="fill: rgb(165, 25, 25);">
<path d="M250,0c138.077,0,250,111.93,250,250c0,138.077-111.923,250-250,250C111.93,500,0,388.077,0,250C0,111.93,111.93,0,250,0z"
	/>
</g></g><g transform="translate(700,770) scale(0.07,0.07)"><g transform="" style="fill: rgb(165, 25, 25);">
<path d="M250,0c138.077,0,250,111.93,250,250c0,138.077-111.923,250-250,250C111.93,500,0,388.077,0,250C0,111.93,111.93,0,250,0z"
	/>
</g></g><g transform="translate(770,770) scale(0.07,0.07)"><g transform="" style="fill: rgb(165, 25, 25);">
<path d="M250,0c138.077,0,250,111.93,250,250c0,138.077-111.923,250-250,250C111.93,500,0,388.077,0,250C0,111.93,111.93,0,250,0z"
	/>
</g></g><g transform="translate(840,770) scale(0.07,0.07)"><g transform="" style="fill: rgb(165, 25, 25);">
<path d="M250,0c138.077,0,250,111.93,250,250c0,138.077-111.923,250-250,250C111.93,500,0,388.077,0,250C0,111.93,111.93,0,250,0z"
	/>
</g></g><g transform="translate(945,770) scale(0.07,0.07)"><g transform="" style="fill: rgb(165, 25, 25);">
<path d="M250,0c138.077,0,250,111.93,250,250c0,138.077-111.923,250-250,250C111.93,500,0,388.077,0,250C0,111.93,111.93,0,250,0z"
	/>
</g></g><g transform="translate(280,805) scale(0.07,0.07)"><g transform="" style="fill: rgb(165, 25, 25);">
<path d="M250,0c138.077,0,250,111.93,250,250c0,138.077-111.923,250-250,250C111.93,500,0,388.077,0,250C0,111.93,111.93,0,250,0z"
	/>
</g></g><g transform="translate(315,805) scale(0.07,0.07)"><g transform="" style="fill: rgb(165, 25, 25);">
<path d="M250,0c138.077,0,250,111.93,250,250c0,138.077-111.923,250-250,250C111.93,500,0,388.077,0,250C0,111.93,111.93,0,250,0z"
	/>
</g></g><g transform="translate(385,805) scale(0.07,0.07)"><g transform="" style="fill: rgb(165, 25, 25);">
<path d="M250,0c138.077,0,250,111.93,250,250c0,138.077-111.923,250-250,250C111.93,500,0,388.077,0,250C0,111.93,111.93,0,250,0z"
	/>
</g></g><g transform="translate(490,805) scale(0.07,0.07)"><g transform="" style="fill: rgb(165, 25, 25);">
<path d="M250,0c138.077,0,250,111.93,250,250c0,138.077-111.923,250-250,250C111.93,500,0,388.077,0,250C0,111.93,111.93,0,250,0z"
	/>
</g></g><g transform="translate(560,805) scale(0.07,0.07)"><g transform="" style="fill: rgb(165, 25, 25);">
<path d="M250,0c138.077,0,250,111.93,250,250c0,138.077-111.923,250-250,250C111.93,500,0,388.077,0,250C0,111.93,111.93,0,250,0z"
	/>
</g></g><g transform="translate(630,805) scale(0.07,0.07)"><g transform="" style="fill: rgb(165, 25, 25);">
<path d="M250,0c138.077,0,250,111.93,250,250c0,138.077-111.923,250-250,250C111.93,500,0,388.077,0,250C0,111.93,111.93,0,250,0z"
	/>
</g></g><g transform="translate(700,805) scale(0.07,0.07)"><g transform="" style="fill: rgb(165, 25, 25);">
<path d="M250,0c138.077,0,250,111.93,250,250c0,138.077-111.923,250-250,250C111.93,500,0,388.077,0,250C0,111.93,111.93,0,250,0z"
	/>
</g></g><g transform="translate(840,805) scale(0.07,0.07)"><g transform="" style="fill: rgb(165, 25, 25);">
<path d="M250,0c138.077,0,250,111.93,250,250c0,138.077-111.923,250-250,250C111.93,500,0,388.077,0,250C0,111.93,111.93,0,250,0z"
	/>
</g></g><g transform="translate(875,805) scale(0.07,0.07)"><g transform="" style="fill: rgb(165, 25, 25);">
<path d="M250,0c138.077,0,250,111.93,250,250c0,138.077-111.923,250-250,250C111.93,500,0,388.077,0,250C0,111.93,111.93,0,250,0z"
	/>
</g></g><g transform="translate(910,805) scale(0.07,0.07)"><g transform="" style="fill: rgb(165, 25, 25);">
<path d="M250,0c138.077,0,250,111.93,250,250c0,138.077-111.923,250-250,250C111.93,500,0,388.077,0,250C0,111.93,111.93,0,250,0z"
	/>
</g></g><g transform="translate(315,840) scale(0.07,0.07)"><g transform="" style="fill: rgb(165, 25, 25);">
<path d="M250,0c138.077,0,250,111.93,250,250c0,138.077-111.923,250-250,250C111.93,500,0,388.077,0,250C0,111.93,111.93,0,250,0z"
	/>
</g></g><g transform="translate(350,840) scale(0.07,0.07)"><g transform="" style="fill: rgb(165, 25, 25);">
<path d="M250,0c138.077,0,250,111.93,250,250c0,138.077-111.923,250-250,250C111.93,500,0,388.077,0,250C0,111.93,111.93,0,250,0z"
	/>
</g></g><g transform="translate(385,840) scale(0.07,0.07)"><g transform="" style="fill: rgb(165, 25, 25);">
<path d="M250,0c138.077,0,250,111.93,250,250c0,138.077-111.923,250-250,250C111.93,500,0,388.077,0,250C0,111.93,111.93,0,250,0z"
	/>
</g></g><g transform="translate(420,840) scale(0.07,0.07)"><g transform="" style="fill: rgb(165, 25, 25);">
<path d="M250,0c138.077,0,250,111.93,250,250c0,138.077-111.923,250-250,250C111.93,500,0,388.077,0,250C0,111.93,111.93,0,250,0z"
	/>
</g></g><g transform="translate(525,840) scale(0.07,0.07)"><g transform="" style="fill: rgb(165, 25, 25);">
<path d="M250,0c138.077,0,250,111.93,250,250c0,138.077-111.923,250-250,250C111.93,500,0,388.077,0,250C0,111.93,111.93,0,250,0z"
	/>
</g></g><g transform="translate(560,840) scale(0.07,0.07)"><g transform="" style="fill: rgb(165, 25, 25);">
<path d="M250,0c138.077,0,250,111.93,250,250c0,138.077-111.923,250-250,250C111.93,500,0,388.077,0,250C0,111.93,111.93,0,250,0z"
	/>
</g></g><g transform="translate(595,840) scale(0.07,0.07)"><g transform="" style="fill: rgb(165, 25, 25);">
<path d="M250,0c138.077,0,250,111.93,250,250c0,138.077-111.923,250-250,250C111.93,500,0,388.077,0,250C0,111.93,111.93,0,250,0z"
	/>
</g></g><g transform="translate(700,840) scale(0.07,0.07)"><g transform="" style="fill: rgb(165, 25, 25);">
<path d="M250,0c138.077,0,250,111.93,250,250c0,138.077-111.923,250-250,250C111.93,500,0,388.077,0,250C0,111.93,111.93,0,250,0z"
	/>
</g></g><g transform="translate(735,840) scale(0.07,0.07)"><g transform="" style="fill: rgb(165, 25, 25);">
<path d="M250,0c138.077,0,250,111.93,250,250c0,138.077-111.923,250-250,250C111.93,500,0,388.077,0,250C0,111.93,111.93,0,250,0z"
	/>
</g></g><g transform="translate(770,840) scale(0.07,0.07)"><g transform="" style="fill: rgb(165, 25, 25);">
<path d="M250,0c138.077,0,250,111.93,250,250c0,138.077-111.923,250-250,250C111.93,500,0,388.077,0,250C0,111.93,111.93,0,250,0z"
	/>
</g></g><g transform="translate(805,840) scale(0.07,0.07)"><g transform="" style="fill: rgb(165, 25, 25);">
<path d="M250,0c138.077,0,250,111.93,250,250c0,138.077-111.923,250-250,250C111.93,500,0,388.077,0,250C0,111.93,111.93,0,250,0z"
	/>
</g></g><g transform="translate(840,840) scale(0.07,0.07)"><g transform="" style="fill: rgb(165, 25, 25);">
<path d="M250,0c138.077,0,250,111.93,250,250c0,138.077-111.923,250-250,250C111.93,500,0,388.077,0,250C0,111.93,111.93,0,250,0z"
	/>
</g></g><g transform="translate(980,840) scale(0.07,0.07)"><g transform="" style="fill: rgb(165, 25, 25);">
<path d="M250,0c138.077,0,250,111.93,250,250c0,138.077-111.923,250-250,250C111.93,500,0,388.077,0,250C0,111.93,111.93,0,250,0z"
	/>
</g></g><g transform="translate(280,875) scale(0.07,0.07)"><g transform="" style="fill: rgb(165, 25, 25);">
<path d="M250,0c138.077,0,250,111.93,250,250c0,138.077-111.923,250-250,250C111.93,500,0,388.077,0,250C0,111.93,111.93,0,250,0z"
	/>
</g></g><g transform="translate(385,875) scale(0.07,0.07)"><g transform="" style="fill: rgb(165, 25, 25);">
<path d="M250,0c138.077,0,250,111.93,250,250c0,138.077-111.923,250-250,250C111.93,500,0,388.077,0,250C0,111.93,111.93,0,250,0z"
	/>
</g></g><g transform="translate(420,875) scale(0.07,0.07)"><g transform="" style="fill: rgb(165, 25, 25);">
<path d="M250,0c138.077,0,250,111.93,250,250c0,138.077-111.923,250-250,250C111.93,500,0,388.077,0,250C0,111.93,111.93,0,250,0z"
	/>
</g></g><g transform="translate(595,875) scale(0.07,0.07)"><g transform="" style="fill: rgb(165, 25, 25);">
<path d="M250,0c138.077,0,250,111.93,250,250c0,138.077-111.923,250-250,250C111.93,500,0,388.077,0,250C0,111.93,111.93,0,250,0z"
	/>
</g></g><g transform="translate(630,875) scale(0.07,0.07)"><g transform="" style="fill: rgb(165, 25, 25);">
<path d="M250,0c138.077,0,250,111.93,250,250c0,138.077-111.923,250-250,250C111.93,500,0,388.077,0,250C0,111.93,111.93,0,250,0z"
	/>
</g></g><g transform="translate(665,875) scale(0.07,0.07)"><g transform="" style="fill: rgb(165, 25, 25);">
<path d="M250,0c138.077,0,250,111.93,250,250c0,138.077-111.923,250-250,250C111.93,500,0,388.077,0,250C0,111.93,111.93,0,250,0z"
	/>
</g></g><g transform="translate(700,875) scale(0.07,0.07)"><g transform="" style="fill: rgb(165, 25, 25);">
<path d="M250,0c138.077,0,250,111.93,250,250c0,138.077-111.923,250-250,250C111.93,500,0,388.077,0,250C0,111.93,111.93,0,250,0z"
	/>
</g></g><g transform="translate(735,875) scale(0.07,0.07)"><g transform="" style="fill: rgb(165, 25, 25);">
<path d="M250,0c138.077,0,250,111.93,250,250c0,138.077-111.923,250-250,250C111.93,500,0,388.077,0,250C0,111.93,111.93,0,250,0z"
	/>
</g></g><g transform="translate(770,875) scale(0.07,0.07)"><g transform="" style="fill: rgb(165, 25, 25);">
<path d="M250,0c138.077,0,250,111.93,250,250c0,138.077-111.923,250-250,250C111.93,500,0,388.077,0,250C0,111.93,111.93,0,250,0z"
	/>
</g></g><g transform="translate(805,875) scale(0.07,0.07)"><g transform="" style="fill: rgb(165, 25, 25);">
<path d="M250,0c138.077,0,250,111.93,250,250c0,138.077-111.923,250-250,250C111.93,500,0,388.077,0,250C0,111.93,111.93,0,250,0z"
	/>
</g></g><g transform="translate(840,875) scale(0.07,0.07)"><g transform="" style="fill: rgb(165, 25, 25);">
<path d="M250,0c138.077,0,250,111.93,250,250c0,138.077-111.923,250-250,250C111.93,500,0,388.077,0,250C0,111.93,111.93,0,250,0z"
	/>
</g></g><g transform="translate(875,875) scale(0.07,0.07)"><g transform="" style="fill: rgb(165, 25, 25);">
<path d="M250,0c138.077,0,250,111.93,250,250c0,138.077-111.923,250-250,250C111.93,500,0,388.077,0,250C0,111.93,111.93,0,250,0z"
	/>
</g></g><g transform="translate(910,875) scale(0.07,0.07)"><g transform="" style="fill: rgb(165, 25, 25);">
<path d="M250,0c138.077,0,250,111.93,250,250c0,138.077-111.923,250-250,250C111.93,500,0,388.077,0,250C0,111.93,111.93,0,250,0z"
	/>
</g></g><g transform="translate(945,875) scale(0.07,0.07)"><g transform="" style="fill: rgb(165, 25, 25);">
<path d="M250,0c138.077,0,250,111.93,250,250c0,138.077-111.923,250-250,250C111.93,500,0,388.077,0,250C0,111.93,111.93,0,250,0z"
	/>
</g></g><g transform="translate(315,910) scale(0.07,0.07)"><g transform="" style="fill: rgb(165, 25, 25);">
<path d="M250,0c138.077,0,250,111.93,250,250c0,138.077-111.923,250-250,250C111.93,500,0,388.077,0,250C0,111.93,111.93,0,250,0z"
	/>
</g></g><g transform="translate(385,910) scale(0.07,0.07)"><g transform="" style="fill: rgb(165, 25, 25);">
<path d="M250,0c138.077,0,250,111.93,250,250c0,138.077-111.923,250-250,250C111.93,500,0,388.077,0,250C0,111.93,111.93,0,250,0z"
	/>
</g></g><g transform="translate(420,910) scale(0.07,0.07)"><g transform="" style="fill: rgb(165, 25, 25);">
<path d="M250,0c138.077,0,250,111.93,250,250c0,138.077-111.923,250-250,250C111.93,500,0,388.077,0,250C0,111.93,111.93,0,250,0z"
	/>
</g></g><g transform="translate(630,910) scale(0.07,0.07)"><g transform="" style="fill: rgb(165, 25, 25);">
<path d="M250,0c138.077,0,250,111.93,250,250c0,138.077-111.923,250-250,250C111.93,500,0,388.077,0,250C0,111.93,111.93,0,250,0z"
	/>
</g></g><g transform="translate(665,910) scale(0.07,0.07)"><g transform="" style="fill: rgb(165, 25, 25);">
<path d="M250,0c138.077,0,250,111.93,250,250c0,138.077-111.923,250-250,250C111.93,500,0,388.077,0,250C0,111.93,111.93,0,250,0z"
	/>
</g></g><g transform="translate(840,910) scale(0.07,0.07)"><g transform="" style="fill: rgb(165, 25, 25);">
<path d="M250,0c138.077,0,250,111.93,250,250c0,138.077-111.923,250-250,250C111.93,500,0,388.077,0,250C0,111.93,111.93,0,250,0z"
	/>
</g></g><g transform="translate(875,910) scale(0.07,0.07)"><g transform="" style="fill: rgb(165, 25, 25);">
<path d="M250,0c138.077,0,250,111.93,250,250c0,138.077-111.923,250-250,250C111.93,500,0,388.077,0,250C0,111.93,111.93,0,250,0z"
	/>
</g></g><g transform="translate(910,910) scale(0.07,0.07)"><g transform="" style="fill: rgb(165, 25, 25);">
<path d="M250,0c138.077,0,250,111.93,250,250c0,138.077-111.923,250-250,250C111.93,500,0,388.077,0,250C0,111.93,111.93,0,250,0z"
	/>
</g></g><g transform="translate(980,910) scale(0.07,0.07)"><g transform="" style="fill: rgb(165, 25, 25);">
<path d="M250,0c138.077,0,250,111.93,250,250c0,138.077-111.923,250-250,250C111.93,500,0,388.077,0,250C0,111.93,111.93,0,250,0z"
	/>
</g></g><g transform="translate(385,945) scale(0.07,0.07)"><g transform="" style="fill: rgb(165, 25, 25);">
<path d="M250,0c138.077,0,250,111.93,250,250c0,138.077-111.923,250-250,250C111.93,500,0,388.077,0,250C0,111.93,111.93,0,250,0z"
	/>
</g></g><g transform="translate(525,945) scale(0.07,0.07)"><g transform="" style="fill: rgb(165, 25, 25);">
<path d="M250,0c138.077,0,250,111.93,250,250c0,138.077-111.923,250-250,250C111.93,500,0,388.077,0,250C0,111.93,111.93,0,250,0z"
	/>
</g></g><g transform="translate(560,945) scale(0.07,0.07)"><g transform="" style="fill: rgb(165, 25, 25);">
<path d="M250,0c138.077,0,250,111.93,250,250c0,138.077-111.923,250-250,250C111.93,500,0,388.077,0,250C0,111.93,111.93,0,250,0z"
	/>
</g></g><g transform="translate(595,945) scale(0.07,0.07)"><g transform="" style="fill: rgb(165, 25, 25);">
<path d="M250,0c138.077,0,250,111.93,250,250c0,138.077-111.923,250-250,250C111.93,500,0,388.077,0,250C0,111.93,111.93,0,250,0z"
	/>
</g></g><g transform="translate(665,945) scale(0.07,0.07)"><g transform="" style="fill: rgb(165, 25, 25);">
<path d="M250,0c138.077,0,250,111.93,250,250c0,138.077-111.923,250-250,250C111.93,500,0,388.077,0,250C0,111.93,111.93,0,250,0z"
	/>
</g></g><g transform="translate(700,945) scale(0.07,0.07)"><g transform="" style="fill: rgb(165, 25, 25);">
<path d="M250,0c138.077,0,250,111.93,250,250c0,138.077-111.923,250-250,250C111.93,500,0,388.077,0,250C0,111.93,111.93,0,250,0z"
	/>
</g></g><g transform="translate(770,945) scale(0.07,0.07)"><g transform="" style="fill: rgb(165, 25, 25);">
<path d="M250,0c138.077,0,250,111.93,250,250c0,138.077-111.923,250-250,250C111.93,500,0,388.077,0,250C0,111.93,111.93,0,250,0z"
	/>
</g></g><g transform="translate(945,945) scale(0.07,0.07)"><g transform="" style="fill: rgb(165, 25, 25);">
<path d="M250,0c138.077,0,250,111.93,250,250c0,138.077-111.923,250-250,250C111.93,500,0,388.077,0,250C0,111.93,111.93,0,250,0z"
	/>
</g></g><g transform="translate(280,980) scale(0.07,0.07)"><g transform="" style="fill: rgb(165, 25, 25);">
<path d="M250,0c138.077,0,250,111.93,250,250c0,138.077-111.923,250-250,250C111.93,500,0,388.077,0,250C0,111.93,111.93,0,250,0z"
	/>
</g></g><g transform="translate(490,980) scale(0.07,0.07)"><g transform="" style="fill: rgb(165, 25, 25);">
<path d="M250,0c138.077,0,250,111.93,250,250c0,138.077-111.923,250-250,250C111.93,500,0,388.077,0,250C0,111.93,111.93,0,250,0z"
	/>
</g></g><g transform="translate(595,980) scale(0.07,0.07)"><g transform="" style="fill: rgb(165, 25, 25);">
<path d="M250,0c138.077,0,250,111.93,250,250c0,138.077-111.923,250-250,250C111.93,500,0,388.077,0,250C0,111.93,111.93,0,250,0z"
	/>
</g></g><g transform="translate(700,980) scale(0.07,0.07)"><g transform="" style="fill: rgb(165, 25, 25);">
<path d="M250,0c138.077,0,250,111.93,250,250c0,138.077-111.923,250-250,250C111.93,500,0,388.077,0,250C0,111.93,111.93,0,250,0z"
	/>
</g></g><g transform="translate(770,980) scale(0.07,0.07)"><g transform="" style="fill: rgb(165, 25, 25);">
<path d="M250,0c138.077,0,250,111.93,250,250c0,138.077-111.923,250-250,250C111.93,500,0,388.077,0,250C0,111.93,111.93,0,250,0z"
	/>
</g></g><g transform="translate(840,980) scale(0.07,0.07)"><g transform="" style="fill: rgb(165, 25, 25);">
<path d="M250,0c138.077,0,250,111.93,250,250c0,138.077-111.923,250-250,250C111.93,500,0,388.077,0,250C0,111.93,111.93,0,250,0z"
	/>
</g></g><g transform="translate(875,980) scale(0.07,0.07)"><g transform="" style="fill: rgb(165, 25, 25);">
<path d="M250,0c138.077,0,250,111.93,250,250c0,138.077-111.923,250-250,250C111.93,500,0,388.077,0,250C0,111.93,111.93,0,250,0z"
	/>
</g></g><g transform="translate(945,980) scale(0.07,0.07)"><g transform="" style="fill: rgb(165, 25, 25);">
<path d="M250,0c138.077,0,250,111.93,250,250c0,138.077-111.923,250-250,250C111.93,500,0,388.077,0,250C0,111.93,111.93,0,250,0z"
	/>
</g></g><g transform="translate(0,0) scale(2.45, 2.45)"><g transform=" translate(100, 0) scale(-1,1) " style="fill: rgb(165, 25, 25);">
<g>
	<path style="fill:none;" d="M85,66.221V33.75C85,23.411,76.414,15,65.859,15H34.14C23.586,15,15,23.411,15,33.75v51.246
		l50.855-0.016C76.414,84.98,85,76.564,85,66.221z"/>
	<path d="M100,66.221V33.75C100,15.141,84.68,0,65.859,0H34.14C15.32,0,0,15.141,0,33.75V100l65.859-0.02
		C84.68,99.98,100,84.84,100,66.221z M85,66.221c0,10.344-8.586,18.76-19.145,18.76L15,84.996V33.75C15,23.411,23.586,15,34.14,15
		h31.719C76.414,15,85,23.411,85,33.75V66.221z"/>
</g>
</g></g><g transform="translate(770,0) scale(2.45, 2.45)"><g transform="" style="fill: rgb(165, 25, 25);">
<g>
	<path style="fill:none;" d="M85,66.221V33.75C85,23.411,76.414,15,65.859,15H34.14C23.586,15,15,23.411,15,33.75v51.246
		l50.855-0.016C76.414,84.98,85,76.564,85,66.221z"/>
	<path d="M100,66.221V33.75C100,15.141,84.68,0,65.859,0H34.14C15.32,0,0,15.141,0,33.75V100l65.859-0.02
		C84.68,99.98,100,84.84,100,66.221z M85,66.221c0,10.344-8.586,18.76-19.145,18.76L15,84.996V33.75C15,23.411,23.586,15,34.14,15
		h31.719C76.414,15,85,23.411,85,33.75V66.221z"/>
</g>
</g></g><g transform="translate(0,770) scale(2.45, 2.45)"><g transform=" translate(100, 0) scale(-1,1)  translate(0,100) scale(1,-1) " style="fill: rgb(165, 25, 25);">
<g>
	<path style="fill:none;" d="M85,66.221V33.75C85,23.411,76.414,15,65.859,15H34.14C23.586,15,15,23.411,15,33.75v51.246
		l50.855-0.016C76.414,84.98,85,76.564,85,66.221z"/>
	<path d="M100,66.221V33.75C100,15.141,84.68,0,65.859,0H34.14C15.32,0,0,15.141,0,33.75V100l65.859-0.02
		C84.68,99.98,100,84.84,100,66.221z M85,66.221c0,10.344-8.586,18.76-19.145,18.76L15,84.996V33.75C15,23.411,23.586,15,34.14,15
		h31.719C76.414,15,85,23.411,85,33.75V66.221z"/>
</g>
</g></g><g transform="translate(70,70) scale(1.05, 1.05)"><g transform="" style="fill: rgb(165, 25, 25);">
<rect width="100" height="100"/>
</g></g><g transform="translate(840,70) scale(1.05, 1.05)"><g transform="" style="fill: rgb(165, 25, 25);">
<rect width="100" height="100"/>
</g></g><g transform="translate(70,840) scale(1.05, 1.05)"><g transform="" style="fill: rgb(165, 25, 25);">
<rect width="100" height="100"/>
</g></g></g></svg>